<?xml version="1.0" encoding="UTF-8"?>
<svg xmlns="http://www.w3.org/2000/svg" xmlns:xlink="http://www.w3.org/1999/xlink" width="288" height="432" viewBox="0 0 288 432">
<rect x="-28.8" y="-43.2" width="345.6" height="518.4" fill="rgb(100%, 100%, 100%)" fill-opacity="1"/>
<rect x="-28.8" y="-43.2" width="345.6" height="518.4" fill="rgb(100%, 100%, 100%)" fill-opacity="1"/>
<path fill="none" stroke-width="0.75" stroke-linecap="round" stroke-linejoin="round" stroke="rgb(100%, 100%, 100%)" stroke-opacity="1" stroke-miterlimit="10" d="M 0 432 L 288 432 L 288 0 L 0 0 Z M 0 432 "/>
<path fill="none" stroke-width="2.25" stroke-linecap="round" stroke-linejoin="round" stroke="rgb(0%, 0%, 0%)" stroke-opacity="1" stroke-miterlimit="10" d="M 34.910156 223 L 10.667969 209 L 10.667969 181.007812 L 34.910156 167.011719 L 59.152344 181.007812 L 59.152344 209 Z M 34.910156 223 "/>
<path fill="none" stroke-width="2.25" stroke-linecap="round" stroke-linejoin="round" stroke="rgb(0%, 0%, 0%)" stroke-opacity="1" stroke-miterlimit="10" d="M 59.152344 348.964844 L 34.910156 334.96875 L 34.910156 306.976562 L 59.152344 292.980469 L 83.394531 306.976562 L 83.394531 334.96875 Z M 59.152344 348.964844 "/>
<path fill="none" stroke-width="2.25" stroke-linecap="round" stroke-linejoin="round" stroke="rgb(0%, 0%, 0%)" stroke-opacity="1" stroke-miterlimit="10" d="M 59.152344 264.988281 L 34.910156 250.992188 L 34.910156 223 L 59.152344 209 L 83.394531 223 L 83.394531 250.992188 Z M 59.152344 264.988281 "/>
<path fill="none" stroke-width="2.25" stroke-linecap="round" stroke-linejoin="round" stroke="rgb(0%, 0%, 0%)" stroke-opacity="1" stroke-miterlimit="10" d="M 59.152344 181.007812 L 34.910156 167.011719 L 34.910156 139.019531 L 59.152344 125.023438 L 83.394531 139.019531 L 83.394531 167.011719 Z M 59.152344 181.007812 "/>
<path fill="none" stroke-width="2.25" stroke-linecap="round" stroke-linejoin="round" stroke="rgb(0%, 0%, 0%)" stroke-opacity="1" stroke-miterlimit="10" d="M 83.394531 390.953125 L 59.152344 376.957031 L 59.152344 348.964844 L 83.394531 334.96875 L 107.636719 348.964844 L 107.636719 376.957031 Z M 83.394531 390.953125 "/>
<path fill="none" stroke-width="2.25" stroke-linecap="round" stroke-linejoin="round" stroke="rgb(0%, 0%, 0%)" stroke-opacity="1" stroke-miterlimit="10" d="M 83.394531 306.976562 L 59.152344 292.980469 L 59.152344 264.988281 L 83.394531 250.992188 L 107.636719 264.988281 L 107.636719 292.980469 Z M 83.394531 306.976562 "/>
<path fill="none" stroke-width="2.25" stroke-linecap="round" stroke-linejoin="round" stroke="rgb(0%, 0%, 0%)" stroke-opacity="1" stroke-miterlimit="10" d="M 83.394531 223 L 59.152344 209 L 59.152344 181.007812 L 83.394531 167.011719 L 107.636719 181.007812 L 107.636719 209 Z M 83.394531 223 "/>
<path fill="none" stroke-width="2.25" stroke-linecap="round" stroke-linejoin="round" stroke="rgb(0%, 0%, 0%)" stroke-opacity="1" stroke-miterlimit="10" d="M 83.394531 139.019531 L 59.152344 125.023438 L 59.152344 97.03125 L 83.394531 83.035156 L 107.636719 97.03125 L 107.636719 125.023438 Z M 83.394531 139.019531 "/>
<path fill="none" stroke-width="2.25" stroke-linecap="round" stroke-linejoin="round" stroke="rgb(0%, 0%, 0%)" stroke-opacity="1" stroke-miterlimit="10" d="M 107.636719 348.964844 L 83.394531 334.96875 L 83.394531 306.976562 L 107.636719 292.980469 L 131.878906 306.976562 L 131.878906 334.96875 Z M 107.636719 348.964844 "/>
<path fill="none" stroke-width="2.25" stroke-linecap="round" stroke-linejoin="round" stroke="rgb(0%, 0%, 0%)" stroke-opacity="1" stroke-miterlimit="10" d="M 107.636719 264.988281 L 83.394531 250.992188 L 83.394531 223 L 107.636719 209 L 131.878906 223 L 131.878906 250.992188 Z M 107.636719 264.988281 "/>
<path fill="none" stroke-width="2.25" stroke-linecap="round" stroke-linejoin="round" stroke="rgb(0%, 0%, 0%)" stroke-opacity="1" stroke-miterlimit="10" d="M 107.636719 181.007812 L 83.394531 167.011719 L 83.394531 139.019531 L 107.636719 125.023438 L 131.878906 139.019531 L 131.878906 167.011719 Z M 107.636719 181.007812 "/>
<path fill="none" stroke-width="2.25" stroke-linecap="round" stroke-linejoin="round" stroke="rgb(0%, 0%, 0%)" stroke-opacity="1" stroke-miterlimit="10" d="M 107.636719 97.03125 L 83.394531 83.035156 L 83.394531 55.042969 L 107.636719 41.046875 L 131.878906 55.042969 L 131.878906 83.035156 Z M 107.636719 97.03125 "/>
<path fill="none" stroke-width="2.25" stroke-linecap="round" stroke-linejoin="round" stroke="rgb(0%, 0%, 0%)" stroke-opacity="1" stroke-miterlimit="10" d="M 131.878906 390.953125 L 107.636719 376.957031 L 107.636719 348.964844 L 131.878906 334.96875 L 156.121094 348.964844 L 156.121094 376.957031 Z M 131.878906 390.953125 "/>
<path fill="none" stroke-width="2.25" stroke-linecap="round" stroke-linejoin="round" stroke="rgb(0%, 0%, 0%)" stroke-opacity="1" stroke-miterlimit="10" d="M 131.878906 306.976562 L 107.636719 292.980469 L 107.636719 264.988281 L 131.878906 250.992188 L 156.121094 264.988281 L 156.121094 292.980469 Z M 131.878906 306.976562 "/>
<path fill="none" stroke-width="2.25" stroke-linecap="round" stroke-linejoin="round" stroke="rgb(0%, 0%, 0%)" stroke-opacity="1" stroke-miterlimit="10" d="M 131.878906 223 L 107.636719 209 L 107.636719 181.007812 L 131.878906 167.011719 L 156.121094 181.007812 L 156.121094 209 Z M 131.878906 223 "/>
<path fill="none" stroke-width="2.25" stroke-linecap="round" stroke-linejoin="round" stroke="rgb(0%, 0%, 0%)" stroke-opacity="1" stroke-miterlimit="10" d="M 131.878906 139.019531 L 107.636719 125.023438 L 107.636719 97.03125 L 131.878906 83.035156 L 156.121094 97.03125 L 156.121094 125.023438 Z M 131.878906 139.019531 "/>
<path fill="none" stroke-width="2.25" stroke-linecap="round" stroke-linejoin="round" stroke="rgb(0%, 0%, 0%)" stroke-opacity="1" stroke-miterlimit="10" d="M 156.121094 348.964844 L 131.878906 334.96875 L 131.878906 306.976562 L 156.121094 292.980469 L 180.363281 306.976562 L 180.363281 334.96875 Z M 156.121094 348.964844 "/>
<path fill="none" stroke-width="2.25" stroke-linecap="round" stroke-linejoin="round" stroke="rgb(0%, 0%, 0%)" stroke-opacity="1" stroke-miterlimit="10" d="M 156.121094 264.988281 L 131.878906 250.992188 L 131.878906 223 L 156.121094 209 L 180.363281 223 L 180.363281 250.992188 Z M 156.121094 264.988281 "/>
<path fill="none" stroke-width="2.25" stroke-linecap="round" stroke-linejoin="round" stroke="rgb(0%, 0%, 0%)" stroke-opacity="1" stroke-miterlimit="10" d="M 156.121094 181.007812 L 131.878906 167.011719 L 131.878906 139.019531 L 156.121094 125.023438 L 180.363281 139.019531 L 180.363281 167.011719 Z M 156.121094 181.007812 "/>
<path fill="none" stroke-width="2.25" stroke-linecap="round" stroke-linejoin="round" stroke="rgb(0%, 0%, 0%)" stroke-opacity="1" stroke-miterlimit="10" d="M 180.363281 390.953125 L 156.121094 376.957031 L 156.121094 348.964844 L 180.363281 334.96875 L 204.605469 348.964844 L 204.605469 376.957031 Z M 180.363281 390.953125 "/>
<path fill="none" stroke-width="2.25" stroke-linecap="round" stroke-linejoin="round" stroke="rgb(0%, 0%, 0%)" stroke-opacity="1" stroke-miterlimit="10" d="M 180.363281 306.976562 L 156.121094 292.980469 L 156.121094 264.988281 L 180.363281 250.992188 L 204.605469 264.988281 L 204.605469 292.980469 Z M 180.363281 306.976562 "/>
<path fill="none" stroke-width="2.25" stroke-linecap="round" stroke-linejoin="round" stroke="rgb(0%, 0%, 0%)" stroke-opacity="1" stroke-miterlimit="10" d="M 180.363281 223 L 156.121094 209 L 156.121094 181.007812 L 180.363281 167.011719 L 204.605469 181.007812 L 204.605469 209 Z M 180.363281 223 "/>
<path fill="none" stroke-width="2.25" stroke-linecap="round" stroke-linejoin="round" stroke="rgb(0%, 0%, 0%)" stroke-opacity="1" stroke-miterlimit="10" d="M 204.605469 348.964844 L 180.363281 334.96875 L 180.363281 306.976562 L 204.605469 292.980469 L 228.847656 306.976562 L 228.847656 334.96875 Z M 204.605469 348.964844 "/>
<path fill="none" stroke-width="2.25" stroke-linecap="round" stroke-linejoin="round" stroke="rgb(0%, 0%, 0%)" stroke-opacity="1" stroke-miterlimit="10" d="M 204.605469 264.988281 L 180.363281 250.992188 L 180.363281 223 L 204.605469 209 L 228.847656 223 L 228.847656 250.992188 Z M 204.605469 264.988281 "/>
<path fill="none" stroke-width="2.25" stroke-linecap="round" stroke-linejoin="round" stroke="rgb(0%, 0%, 0%)" stroke-opacity="1" stroke-miterlimit="10" d="M 228.847656 306.976562 L 204.605469 292.980469 L 204.605469 264.988281 L 228.847656 250.992188 L 253.089844 264.988281 L 253.089844 292.980469 Z M 228.847656 306.976562 "/>
<path fill="none" stroke-width="2.25" stroke-linecap="round" stroke-linejoin="round" stroke="rgb(0%, 0%, 0%)" stroke-opacity="1" stroke-miterlimit="10" d="M 253.089844 264.988281 L 228.847656 250.992188 L 228.847656 223 L 253.089844 209 L 277.332031 223 L 277.332031 250.992188 Z M 253.089844 264.988281 "/>
<path fill-rule="evenodd" fill="rgb(95.686275%, 64.313725%, 37.647059%)" fill-opacity="1" d="M 34.910156 223 L 10.667969 209 L 10.667969 181.007812 L 34.910156 167.011719 L 59.152344 181.007812 L 59.152344 209 Z M 34.910156 223 "/>
<path fill-rule="evenodd" fill="rgb(95.686275%, 64.313725%, 37.647059%)" fill-opacity="1" d="M 59.152344 348.964844 L 34.910156 334.96875 L 34.910156 306.976562 L 59.152344 292.980469 L 83.394531 306.976562 L 83.394531 334.96875 Z M 59.152344 348.964844 "/>
<path fill-rule="evenodd" fill="rgb(95.686275%, 64.313725%, 37.647059%)" fill-opacity="1" d="M 59.152344 264.988281 L 34.910156 250.992188 L 34.910156 223 L 59.152344 209 L 83.394531 223 L 83.394531 250.992188 Z M 59.152344 264.988281 "/>
<path fill-rule="evenodd" fill="rgb(95.686275%, 64.313725%, 37.647059%)" fill-opacity="1" d="M 59.152344 181.007812 L 34.910156 167.011719 L 34.910156 139.019531 L 59.152344 125.023438 L 83.394531 139.019531 L 83.394531 167.011719 Z M 59.152344 181.007812 "/>
<path fill-rule="evenodd" fill="rgb(95.686275%, 64.313725%, 37.647059%)" fill-opacity="1" d="M 83.394531 390.953125 L 59.152344 376.957031 L 59.152344 348.964844 L 83.394531 334.96875 L 107.636719 348.964844 L 107.636719 376.957031 Z M 83.394531 390.953125 "/>
<path fill-rule="evenodd" fill="rgb(95.686275%, 64.313725%, 37.647059%)" fill-opacity="1" d="M 83.394531 306.976562 L 59.152344 292.980469 L 59.152344 264.988281 L 83.394531 250.992188 L 107.636719 264.988281 L 107.636719 292.980469 Z M 83.394531 306.976562 "/>
<path fill-rule="evenodd" fill="rgb(95.686275%, 64.313725%, 37.647059%)" fill-opacity="1" d="M 83.394531 223 L 59.152344 209 L 59.152344 181.007812 L 83.394531 167.011719 L 107.636719 181.007812 L 107.636719 209 Z M 83.394531 223 "/>
<path fill-rule="evenodd" fill="rgb(95.686275%, 64.313725%, 37.647059%)" fill-opacity="1" d="M 83.394531 139.019531 L 59.152344 125.023438 L 59.152344 97.03125 L 83.394531 83.035156 L 107.636719 97.03125 L 107.636719 125.023438 Z M 83.394531 139.019531 "/>
<path fill-rule="evenodd" fill="rgb(95.686275%, 64.313725%, 37.647059%)" fill-opacity="1" d="M 107.636719 348.964844 L 83.394531 334.96875 L 83.394531 306.976562 L 107.636719 292.980469 L 131.878906 306.976562 L 131.878906 334.96875 Z M 107.636719 348.964844 "/>
<path fill-rule="evenodd" fill="rgb(95.686275%, 64.313725%, 37.647059%)" fill-opacity="1" d="M 107.636719 264.988281 L 83.394531 250.992188 L 83.394531 223 L 107.636719 209 L 131.878906 223 L 131.878906 250.992188 Z M 107.636719 264.988281 "/>
<path fill-rule="evenodd" fill="rgb(95.686275%, 64.313725%, 37.647059%)" fill-opacity="1" d="M 107.636719 181.007812 L 83.394531 167.011719 L 83.394531 139.019531 L 107.636719 125.023438 L 131.878906 139.019531 L 131.878906 167.011719 Z M 107.636719 181.007812 "/>
<path fill-rule="evenodd" fill="rgb(95.686275%, 64.313725%, 37.647059%)" fill-opacity="1" d="M 107.636719 97.03125 L 83.394531 83.035156 L 83.394531 55.042969 L 107.636719 41.046875 L 131.878906 55.042969 L 131.878906 83.035156 Z M 107.636719 97.03125 "/>
<path fill-rule="evenodd" fill="rgb(95.686275%, 64.313725%, 37.647059%)" fill-opacity="1" d="M 131.878906 390.953125 L 107.636719 376.957031 L 107.636719 348.964844 L 131.878906 334.96875 L 156.121094 348.964844 L 156.121094 376.957031 Z M 131.878906 390.953125 "/>
<path fill-rule="evenodd" fill="rgb(95.686275%, 64.313725%, 37.647059%)" fill-opacity="1" d="M 131.878906 306.976562 L 107.636719 292.980469 L 107.636719 264.988281 L 131.878906 250.992188 L 156.121094 264.988281 L 156.121094 292.980469 Z M 131.878906 306.976562 "/>
<path fill-rule="evenodd" fill="rgb(95.686275%, 64.313725%, 37.647059%)" fill-opacity="1" d="M 131.878906 223 L 107.636719 209 L 107.636719 181.007812 L 131.878906 167.011719 L 156.121094 181.007812 L 156.121094 209 Z M 131.878906 223 "/>
<path fill-rule="evenodd" fill="rgb(95.686275%, 64.313725%, 37.647059%)" fill-opacity="1" d="M 131.878906 139.019531 L 107.636719 125.023438 L 107.636719 97.03125 L 131.878906 83.035156 L 156.121094 97.03125 L 156.121094 125.023438 Z M 131.878906 139.019531 "/>
<path fill-rule="evenodd" fill="rgb(95.686275%, 64.313725%, 37.647059%)" fill-opacity="1" d="M 156.121094 348.964844 L 131.878906 334.96875 L 131.878906 306.976562 L 156.121094 292.980469 L 180.363281 306.976562 L 180.363281 334.96875 Z M 156.121094 348.964844 "/>
<path fill-rule="evenodd" fill="rgb(95.686275%, 64.313725%, 37.647059%)" fill-opacity="1" d="M 156.121094 264.988281 L 131.878906 250.992188 L 131.878906 223 L 156.121094 209 L 180.363281 223 L 180.363281 250.992188 Z M 156.121094 264.988281 "/>
<path fill-rule="evenodd" fill="rgb(95.686275%, 64.313725%, 37.647059%)" fill-opacity="1" d="M 156.121094 181.007812 L 131.878906 167.011719 L 131.878906 139.019531 L 156.121094 125.023438 L 180.363281 139.019531 L 180.363281 167.011719 Z M 156.121094 181.007812 "/>
<path fill-rule="evenodd" fill="rgb(95.686275%, 64.313725%, 37.647059%)" fill-opacity="1" d="M 180.363281 390.953125 L 156.121094 376.957031 L 156.121094 348.964844 L 180.363281 334.96875 L 204.605469 348.964844 L 204.605469 376.957031 Z M 180.363281 390.953125 "/>
<path fill-rule="evenodd" fill="rgb(95.686275%, 64.313725%, 37.647059%)" fill-opacity="1" d="M 180.363281 306.976562 L 156.121094 292.980469 L 156.121094 264.988281 L 180.363281 250.992188 L 204.605469 264.988281 L 204.605469 292.980469 Z M 180.363281 306.976562 "/>
<path fill-rule="evenodd" fill="rgb(95.686275%, 64.313725%, 37.647059%)" fill-opacity="1" d="M 180.363281 223 L 156.121094 209 L 156.121094 181.007812 L 180.363281 167.011719 L 204.605469 181.007812 L 204.605469 209 Z M 180.363281 223 "/>
<path fill-rule="evenodd" fill="rgb(95.686275%, 64.313725%, 37.647059%)" fill-opacity="1" d="M 204.605469 348.964844 L 180.363281 334.96875 L 180.363281 306.976562 L 204.605469 292.980469 L 228.847656 306.976562 L 228.847656 334.96875 Z M 204.605469 348.964844 "/>
<path fill-rule="evenodd" fill="rgb(95.686275%, 64.313725%, 37.647059%)" fill-opacity="1" d="M 204.605469 264.988281 L 180.363281 250.992188 L 180.363281 223 L 204.605469 209 L 228.847656 223 L 228.847656 250.992188 Z M 204.605469 264.988281 "/>
<path fill-rule="evenodd" fill="rgb(95.686275%, 64.313725%, 37.647059%)" fill-opacity="1" d="M 228.847656 306.976562 L 204.605469 292.980469 L 204.605469 264.988281 L 228.847656 250.992188 L 253.089844 264.988281 L 253.089844 292.980469 Z M 228.847656 306.976562 "/>
<path fill-rule="evenodd" fill="rgb(95.686275%, 64.313725%, 37.647059%)" fill-opacity="1" d="M 253.089844 264.988281 L 228.847656 250.992188 L 228.847656 223 L 253.089844 209 L 277.332031 223 L 277.332031 250.992188 Z M 253.089844 264.988281 "/>
<path fill-rule="evenodd" fill="rgb(13.333333%, 54.509804%, 13.333333%)" fill-opacity="1" d="M 34.910156 223 L 10.667969 209 L 10.667969 181.007812 L 34.910156 167.011719 L 59.152344 181.007812 L 59.152344 209 Z M 34.910156 223 "/>
<path fill-rule="evenodd" fill="rgb(13.333333%, 54.509804%, 13.333333%)" fill-opacity="1" d="M 83.394531 223 L 59.152344 209 L 59.152344 181.007812 L 83.394531 167.011719 L 107.636719 181.007812 L 107.636719 209 Z M 83.394531 223 "/>
<path fill-rule="evenodd" fill="rgb(13.333333%, 54.509804%, 13.333333%)" fill-opacity="1" d="M 83.394531 139.019531 L 59.152344 125.023438 L 59.152344 97.03125 L 83.394531 83.035156 L 107.636719 97.03125 L 107.636719 125.023438 Z M 83.394531 139.019531 "/>
<path fill-rule="evenodd" fill="rgb(13.333333%, 54.509804%, 13.333333%)" fill-opacity="1" d="M 107.636719 264.988281 L 83.394531 250.992188 L 83.394531 223 L 107.636719 209 L 131.878906 223 L 131.878906 250.992188 Z M 107.636719 264.988281 "/>
<path fill-rule="evenodd" fill="rgb(13.333333%, 54.509804%, 13.333333%)" fill-opacity="1" d="M 107.636719 97.03125 L 83.394531 83.035156 L 83.394531 55.042969 L 107.636719 41.046875 L 131.878906 55.042969 L 131.878906 83.035156 Z M 107.636719 97.03125 "/>
<path fill-rule="evenodd" fill="rgb(13.333333%, 54.509804%, 13.333333%)" fill-opacity="1" d="M 131.878906 306.976562 L 107.636719 292.980469 L 107.636719 264.988281 L 131.878906 250.992188 L 156.121094 264.988281 L 156.121094 292.980469 Z M 131.878906 306.976562 "/>
<path fill-rule="evenodd" fill="rgb(13.333333%, 54.509804%, 13.333333%)" fill-opacity="1" d="M 156.121094 181.007812 L 131.878906 167.011719 L 131.878906 139.019531 L 156.121094 125.023438 L 180.363281 139.019531 L 180.363281 167.011719 Z M 156.121094 181.007812 "/>
<path fill-rule="evenodd" fill="rgb(13.333333%, 54.509804%, 13.333333%)" fill-opacity="1" d="M 180.363281 223 L 156.121094 209 L 156.121094 181.007812 L 180.363281 167.011719 L 204.605469 181.007812 L 204.605469 209 Z M 180.363281 223 "/>
<path fill-rule="evenodd" fill="rgb(54.509804%, 0%, 0%)" fill-opacity="1" d="M 83.394531 390.953125 L 59.152344 376.957031 L 59.152344 348.964844 L 83.394531 334.96875 L 107.636719 348.964844 L 107.636719 376.957031 Z M 83.394531 390.953125 "/>
<path fill-rule="evenodd" fill="rgb(54.509804%, 0%, 0%)" fill-opacity="1" d="M 131.878906 223 L 107.636719 209 L 107.636719 181.007812 L 131.878906 167.011719 L 156.121094 181.007812 L 156.121094 209 Z M 131.878906 223 "/>
<path fill-rule="evenodd" fill="rgb(54.509804%, 0%, 0%)" fill-opacity="1" d="M 156.121094 348.964844 L 131.878906 334.96875 L 131.878906 306.976562 L 156.121094 292.980469 L 180.363281 306.976562 L 180.363281 334.96875 Z M 156.121094 348.964844 "/>
</svg>
