<?xml version="1.0" encoding="UTF-8"?>
<svg xmlns="http://www.w3.org/2000/svg" xmlns:xlink="http://www.w3.org/1999/xlink" width="288" height="432" viewBox="0 0 288 432">
<rect x="-28.8" y="-43.2" width="345.6" height="518.4" fill="rgb(100%, 100%, 100%)" fill-opacity="1"/>
<rect x="-28.8" y="-43.2" width="345.6" height="518.4" fill="rgb(100%, 100%, 100%)" fill-opacity="1"/>
<path fill="none" stroke-width="0.75" stroke-linecap="round" stroke-linejoin="round" stroke="rgb(100%, 100%, 100%)" stroke-opacity="1" stroke-miterlimit="10" d="M 0 432 L 288 432 L 288 0 L 0 0 Z M 0 432 "/>
<path fill="none" stroke-width="2.25" stroke-linecap="round" stroke-linejoin="round" stroke="rgb(0%, 0%, 0%)" stroke-opacity="1" stroke-miterlimit="10" d="M 22.789062 240.492188 L 10.667969 233.496094 L 10.667969 219.5 L 22.789062 212.5 L 34.910156 219.5 L 34.910156 233.496094 Z M 22.789062 240.492188 "/>
<path fill="none" stroke-width="2.25" stroke-linecap="round" stroke-linejoin="round" stroke="rgb(0%, 0%, 0%)" stroke-opacity="1" stroke-miterlimit="10" d="M 22.789062 198.503906 L 10.667969 191.507812 L 10.667969 177.511719 L 22.789062 170.511719 L 34.910156 177.511719 L 34.910156 191.507812 Z M 22.789062 198.503906 "/>
<path fill="none" stroke-width="2.25" stroke-linecap="round" stroke-linejoin="round" stroke="rgb(0%, 0%, 0%)" stroke-opacity="1" stroke-miterlimit="10" d="M 34.910156 219.5 L 22.789062 212.5 L 22.789062 198.503906 L 34.910156 191.507812 L 47.03125 198.503906 L 47.03125 212.5 Z M 34.910156 219.5 "/>
<path fill="none" stroke-width="2.25" stroke-linecap="round" stroke-linejoin="round" stroke="rgb(0%, 0%, 0%)" stroke-opacity="1" stroke-miterlimit="10" d="M 34.910156 177.511719 L 22.789062 170.511719 L 22.789062 156.515625 L 34.910156 149.515625 L 47.03125 156.515625 L 47.03125 170.511719 Z M 34.910156 177.511719 "/>
<path fill="none" stroke-width="2.25" stroke-linecap="round" stroke-linejoin="round" stroke="rgb(0%, 0%, 0%)" stroke-opacity="1" stroke-miterlimit="10" d="M 47.03125 282.484375 L 34.910156 275.484375 L 34.910156 261.488281 L 47.03125 254.488281 L 59.152344 261.488281 L 59.152344 275.484375 Z M 47.03125 282.484375 "/>
<path fill="none" stroke-width="2.25" stroke-linecap="round" stroke-linejoin="round" stroke="rgb(0%, 0%, 0%)" stroke-opacity="1" stroke-miterlimit="10" d="M 47.03125 240.492188 L 34.910156 233.496094 L 34.910156 219.5 L 47.03125 212.5 L 59.152344 219.5 L 59.152344 233.496094 Z M 47.03125 240.492188 "/>
<path fill="none" stroke-width="2.25" stroke-linecap="round" stroke-linejoin="round" stroke="rgb(0%, 0%, 0%)" stroke-opacity="1" stroke-miterlimit="10" d="M 47.03125 198.503906 L 34.910156 191.507812 L 34.910156 177.511719 L 47.03125 170.511719 L 59.152344 177.511719 L 59.152344 191.507812 Z M 47.03125 198.503906 "/>
<path fill="none" stroke-width="2.25" stroke-linecap="round" stroke-linejoin="round" stroke="rgb(0%, 0%, 0%)" stroke-opacity="1" stroke-miterlimit="10" d="M 47.03125 156.515625 L 34.910156 149.515625 L 34.910156 135.519531 L 47.03125 128.523438 L 59.152344 135.519531 L 59.152344 149.515625 Z M 47.03125 156.515625 "/>
<path fill="none" stroke-width="2.25" stroke-linecap="round" stroke-linejoin="round" stroke="rgb(0%, 0%, 0%)" stroke-opacity="1" stroke-miterlimit="10" d="M 59.152344 387.457031 L 47.03125 380.457031 L 47.03125 366.460938 L 59.152344 359.460938 L 71.273438 366.460938 L 71.273438 380.457031 Z M 59.152344 387.457031 "/>
<path fill="none" stroke-width="2.25" stroke-linecap="round" stroke-linejoin="round" stroke="rgb(0%, 0%, 0%)" stroke-opacity="1" stroke-miterlimit="10" d="M 59.152344 345.464844 L 47.03125 338.46875 L 47.03125 324.472656 L 59.152344 317.472656 L 71.273438 324.472656 L 71.273438 338.46875 Z M 59.152344 345.464844 "/>
<path fill="none" stroke-width="2.25" stroke-linecap="round" stroke-linejoin="round" stroke="rgb(0%, 0%, 0%)" stroke-opacity="1" stroke-miterlimit="10" d="M 59.152344 303.476562 L 47.03125 296.480469 L 47.03125 282.484375 L 59.152344 275.484375 L 71.273438 282.484375 L 71.273438 296.480469 Z M 59.152344 303.476562 "/>
<path fill="none" stroke-width="2.25" stroke-linecap="round" stroke-linejoin="round" stroke="rgb(0%, 0%, 0%)" stroke-opacity="1" stroke-miterlimit="10" d="M 59.152344 261.488281 L 47.03125 254.488281 L 47.03125 240.492188 L 59.152344 233.496094 L 71.273438 240.492188 L 71.273438 254.488281 Z M 59.152344 261.488281 "/>
<path fill="none" stroke-width="2.25" stroke-linecap="round" stroke-linejoin="round" stroke="rgb(0%, 0%, 0%)" stroke-opacity="1" stroke-miterlimit="10" d="M 59.152344 219.5 L 47.03125 212.5 L 47.03125 198.503906 L 59.152344 191.507812 L 71.273438 198.503906 L 71.273438 212.5 Z M 59.152344 219.5 "/>
<path fill="none" stroke-width="2.25" stroke-linecap="round" stroke-linejoin="round" stroke="rgb(0%, 0%, 0%)" stroke-opacity="1" stroke-miterlimit="10" d="M 59.152344 177.511719 L 47.03125 170.511719 L 47.03125 156.515625 L 59.152344 149.515625 L 71.273438 156.515625 L 71.273438 170.511719 Z M 59.152344 177.511719 "/>
<path fill="none" stroke-width="2.25" stroke-linecap="round" stroke-linejoin="round" stroke="rgb(0%, 0%, 0%)" stroke-opacity="1" stroke-miterlimit="10" d="M 59.152344 135.519531 L 47.03125 128.523438 L 47.03125 114.527344 L 59.152344 107.527344 L 71.273438 114.527344 L 71.273438 128.523438 Z M 59.152344 135.519531 "/>
<path fill="none" stroke-width="2.25" stroke-linecap="round" stroke-linejoin="round" stroke="rgb(0%, 0%, 0%)" stroke-opacity="1" stroke-miterlimit="10" d="M 71.273438 366.460938 L 59.152344 359.460938 L 59.152344 345.464844 L 71.273438 338.46875 L 83.394531 345.464844 L 83.394531 359.460938 Z M 71.273438 366.460938 "/>
<path fill="none" stroke-width="2.25" stroke-linecap="round" stroke-linejoin="round" stroke="rgb(0%, 0%, 0%)" stroke-opacity="1" stroke-miterlimit="10" d="M 71.273438 324.472656 L 59.152344 317.472656 L 59.152344 303.476562 L 71.273438 296.480469 L 83.394531 303.476562 L 83.394531 317.472656 Z M 71.273438 324.472656 "/>
<path fill="none" stroke-width="2.25" stroke-linecap="round" stroke-linejoin="round" stroke="rgb(0%, 0%, 0%)" stroke-opacity="1" stroke-miterlimit="10" d="M 71.273438 282.484375 L 59.152344 275.484375 L 59.152344 261.488281 L 71.273438 254.488281 L 83.394531 261.488281 L 83.394531 275.484375 Z M 71.273438 282.484375 "/>
<path fill="none" stroke-width="2.25" stroke-linecap="round" stroke-linejoin="round" stroke="rgb(0%, 0%, 0%)" stroke-opacity="1" stroke-miterlimit="10" d="M 71.273438 240.492188 L 59.152344 233.496094 L 59.152344 219.5 L 71.273438 212.5 L 83.394531 219.5 L 83.394531 233.496094 Z M 71.273438 240.492188 "/>
<path fill="none" stroke-width="2.25" stroke-linecap="round" stroke-linejoin="round" stroke="rgb(0%, 0%, 0%)" stroke-opacity="1" stroke-miterlimit="10" d="M 71.273438 198.503906 L 59.152344 191.507812 L 59.152344 177.511719 L 71.273438 170.511719 L 83.394531 177.511719 L 83.394531 191.507812 Z M 71.273438 198.503906 "/>
<path fill="none" stroke-width="2.25" stroke-linecap="round" stroke-linejoin="round" stroke="rgb(0%, 0%, 0%)" stroke-opacity="1" stroke-miterlimit="10" d="M 71.273438 156.515625 L 59.152344 149.515625 L 59.152344 135.519531 L 71.273438 128.523438 L 83.394531 135.519531 L 83.394531 149.515625 Z M 71.273438 156.515625 "/>
<path fill="none" stroke-width="2.25" stroke-linecap="round" stroke-linejoin="round" stroke="rgb(0%, 0%, 0%)" stroke-opacity="1" stroke-miterlimit="10" d="M 71.273438 114.527344 L 59.152344 107.527344 L 59.152344 93.53125 L 71.273438 86.535156 L 83.394531 93.53125 L 83.394531 107.527344 Z M 71.273438 114.527344 "/>
<path fill="none" stroke-width="2.25" stroke-linecap="round" stroke-linejoin="round" stroke="rgb(0%, 0%, 0%)" stroke-opacity="1" stroke-miterlimit="10" d="M 83.394531 387.457031 L 71.273438 380.457031 L 71.273438 366.460938 L 83.394531 359.460938 L 95.515625 366.460938 L 95.515625 380.457031 Z M 83.394531 387.457031 "/>
<path fill="none" stroke-width="2.25" stroke-linecap="round" stroke-linejoin="round" stroke="rgb(0%, 0%, 0%)" stroke-opacity="1" stroke-miterlimit="10" d="M 83.394531 345.464844 L 71.273438 338.46875 L 71.273438 324.472656 L 83.394531 317.472656 L 95.515625 324.472656 L 95.515625 338.46875 Z M 83.394531 345.464844 "/>
<path fill="none" stroke-width="2.25" stroke-linecap="round" stroke-linejoin="round" stroke="rgb(0%, 0%, 0%)" stroke-opacity="1" stroke-miterlimit="10" d="M 83.394531 303.476562 L 71.273438 296.480469 L 71.273438 282.484375 L 83.394531 275.484375 L 95.515625 282.484375 L 95.515625 296.480469 Z M 83.394531 303.476562 "/>
<path fill="none" stroke-width="2.25" stroke-linecap="round" stroke-linejoin="round" stroke="rgb(0%, 0%, 0%)" stroke-opacity="1" stroke-miterlimit="10" d="M 83.394531 261.488281 L 71.273438 254.488281 L 71.273438 240.492188 L 83.394531 233.496094 L 95.515625 240.492188 L 95.515625 254.488281 Z M 83.394531 261.488281 "/>
<path fill="none" stroke-width="2.25" stroke-linecap="round" stroke-linejoin="round" stroke="rgb(0%, 0%, 0%)" stroke-opacity="1" stroke-miterlimit="10" d="M 83.394531 219.5 L 71.273438 212.5 L 71.273438 198.503906 L 83.394531 191.507812 L 95.515625 198.503906 L 95.515625 212.5 Z M 83.394531 219.5 "/>
<path fill="none" stroke-width="2.25" stroke-linecap="round" stroke-linejoin="round" stroke="rgb(0%, 0%, 0%)" stroke-opacity="1" stroke-miterlimit="10" d="M 83.394531 177.511719 L 71.273438 170.511719 L 71.273438 156.515625 L 83.394531 149.515625 L 95.515625 156.515625 L 95.515625 170.511719 Z M 83.394531 177.511719 "/>
<path fill="none" stroke-width="2.25" stroke-linecap="round" stroke-linejoin="round" stroke="rgb(0%, 0%, 0%)" stroke-opacity="1" stroke-miterlimit="10" d="M 83.394531 135.519531 L 71.273438 128.523438 L 71.273438 114.527344 L 83.394531 107.527344 L 95.515625 114.527344 L 95.515625 128.523438 Z M 83.394531 135.519531 "/>
<path fill="none" stroke-width="2.25" stroke-linecap="round" stroke-linejoin="round" stroke="rgb(0%, 0%, 0%)" stroke-opacity="1" stroke-miterlimit="10" d="M 83.394531 93.53125 L 71.273438 86.535156 L 71.273438 72.539062 L 83.394531 65.539062 L 95.515625 72.539062 L 95.515625 86.535156 Z M 83.394531 93.53125 "/>
<path fill="none" stroke-width="2.25" stroke-linecap="round" stroke-linejoin="round" stroke="rgb(0%, 0%, 0%)" stroke-opacity="1" stroke-miterlimit="10" d="M 95.515625 408.449219 L 83.394531 401.453125 L 83.394531 387.457031 L 95.515625 380.457031 L 107.636719 387.457031 L 107.636719 401.453125 Z M 95.515625 408.449219 "/>
<path fill="none" stroke-width="2.25" stroke-linecap="round" stroke-linejoin="round" stroke="rgb(0%, 0%, 0%)" stroke-opacity="1" stroke-miterlimit="10" d="M 95.515625 366.460938 L 83.394531 359.460938 L 83.394531 345.464844 L 95.515625 338.46875 L 107.636719 345.464844 L 107.636719 359.460938 Z M 95.515625 366.460938 "/>
<path fill="none" stroke-width="2.25" stroke-linecap="round" stroke-linejoin="round" stroke="rgb(0%, 0%, 0%)" stroke-opacity="1" stroke-miterlimit="10" d="M 95.515625 324.472656 L 83.394531 317.472656 L 83.394531 303.476562 L 95.515625 296.480469 L 107.636719 303.476562 L 107.636719 317.472656 Z M 95.515625 324.472656 "/>
<path fill="none" stroke-width="2.25" stroke-linecap="round" stroke-linejoin="round" stroke="rgb(0%, 0%, 0%)" stroke-opacity="1" stroke-miterlimit="10" d="M 95.515625 282.484375 L 83.394531 275.484375 L 83.394531 261.488281 L 95.515625 254.488281 L 107.636719 261.488281 L 107.636719 275.484375 Z M 95.515625 282.484375 "/>
<path fill="none" stroke-width="2.25" stroke-linecap="round" stroke-linejoin="round" stroke="rgb(0%, 0%, 0%)" stroke-opacity="1" stroke-miterlimit="10" d="M 95.515625 240.492188 L 83.394531 233.496094 L 83.394531 219.5 L 95.515625 212.5 L 107.636719 219.5 L 107.636719 233.496094 Z M 95.515625 240.492188 "/>
<path fill="none" stroke-width="2.25" stroke-linecap="round" stroke-linejoin="round" stroke="rgb(0%, 0%, 0%)" stroke-opacity="1" stroke-miterlimit="10" d="M 95.515625 198.503906 L 83.394531 191.507812 L 83.394531 177.511719 L 95.515625 170.511719 L 107.636719 177.511719 L 107.636719 191.507812 Z M 95.515625 198.503906 "/>
<path fill="none" stroke-width="2.25" stroke-linecap="round" stroke-linejoin="round" stroke="rgb(0%, 0%, 0%)" stroke-opacity="1" stroke-miterlimit="10" d="M 95.515625 156.515625 L 83.394531 149.515625 L 83.394531 135.519531 L 95.515625 128.523438 L 107.636719 135.519531 L 107.636719 149.515625 Z M 95.515625 156.515625 "/>
<path fill="none" stroke-width="2.25" stroke-linecap="round" stroke-linejoin="round" stroke="rgb(0%, 0%, 0%)" stroke-opacity="1" stroke-miterlimit="10" d="M 95.515625 114.527344 L 83.394531 107.527344 L 83.394531 93.53125 L 95.515625 86.535156 L 107.636719 93.53125 L 107.636719 107.527344 Z M 95.515625 114.527344 "/>
<path fill="none" stroke-width="2.25" stroke-linecap="round" stroke-linejoin="round" stroke="rgb(0%, 0%, 0%)" stroke-opacity="1" stroke-miterlimit="10" d="M 95.515625 72.539062 L 83.394531 65.539062 L 83.394531 51.542969 L 95.515625 44.542969 L 107.636719 51.542969 L 107.636719 65.539062 Z M 95.515625 72.539062 "/>
<path fill="none" stroke-width="2.25" stroke-linecap="round" stroke-linejoin="round" stroke="rgb(0%, 0%, 0%)" stroke-opacity="1" stroke-miterlimit="10" d="M 107.636719 387.457031 L 95.515625 380.457031 L 95.515625 366.460938 L 107.636719 359.460938 L 119.757812 366.460938 L 119.757812 380.457031 Z M 107.636719 387.457031 "/>
<path fill="none" stroke-width="2.25" stroke-linecap="round" stroke-linejoin="round" stroke="rgb(0%, 0%, 0%)" stroke-opacity="1" stroke-miterlimit="10" d="M 107.636719 345.464844 L 95.515625 338.46875 L 95.515625 324.472656 L 107.636719 317.472656 L 119.757812 324.472656 L 119.757812 338.46875 Z M 107.636719 345.464844 "/>
<path fill="none" stroke-width="2.25" stroke-linecap="round" stroke-linejoin="round" stroke="rgb(0%, 0%, 0%)" stroke-opacity="1" stroke-miterlimit="10" d="M 107.636719 303.476562 L 95.515625 296.480469 L 95.515625 282.484375 L 107.636719 275.484375 L 119.757812 282.484375 L 119.757812 296.480469 Z M 107.636719 303.476562 "/>
<path fill="none" stroke-width="2.25" stroke-linecap="round" stroke-linejoin="round" stroke="rgb(0%, 0%, 0%)" stroke-opacity="1" stroke-miterlimit="10" d="M 107.636719 261.488281 L 95.515625 254.488281 L 95.515625 240.492188 L 107.636719 233.496094 L 119.757812 240.492188 L 119.757812 254.488281 Z M 107.636719 261.488281 "/>
<path fill="none" stroke-width="2.25" stroke-linecap="round" stroke-linejoin="round" stroke="rgb(0%, 0%, 0%)" stroke-opacity="1" stroke-miterlimit="10" d="M 107.636719 219.5 L 95.515625 212.5 L 95.515625 198.503906 L 107.636719 191.507812 L 119.757812 198.503906 L 119.757812 212.5 Z M 107.636719 219.5 "/>
<path fill="none" stroke-width="2.25" stroke-linecap="round" stroke-linejoin="round" stroke="rgb(0%, 0%, 0%)" stroke-opacity="1" stroke-miterlimit="10" d="M 107.636719 177.511719 L 95.515625 170.511719 L 95.515625 156.515625 L 107.636719 149.515625 L 119.757812 156.515625 L 119.757812 170.511719 Z M 107.636719 177.511719 "/>
<path fill="none" stroke-width="2.25" stroke-linecap="round" stroke-linejoin="round" stroke="rgb(0%, 0%, 0%)" stroke-opacity="1" stroke-miterlimit="10" d="M 107.636719 135.519531 L 95.515625 128.523438 L 95.515625 114.527344 L 107.636719 107.527344 L 119.757812 114.527344 L 119.757812 128.523438 Z M 107.636719 135.519531 "/>
<path fill="none" stroke-width="2.25" stroke-linecap="round" stroke-linejoin="round" stroke="rgb(0%, 0%, 0%)" stroke-opacity="1" stroke-miterlimit="10" d="M 107.636719 93.53125 L 95.515625 86.535156 L 95.515625 72.539062 L 107.636719 65.539062 L 119.757812 72.539062 L 119.757812 86.535156 Z M 107.636719 93.53125 "/>
<path fill="none" stroke-width="2.25" stroke-linecap="round" stroke-linejoin="round" stroke="rgb(0%, 0%, 0%)" stroke-opacity="1" stroke-miterlimit="10" d="M 107.636719 51.542969 L 95.515625 44.542969 L 95.515625 30.546875 L 107.636719 23.550781 L 119.757812 30.546875 L 119.757812 44.542969 Z M 107.636719 51.542969 "/>
<path fill="none" stroke-width="2.25" stroke-linecap="round" stroke-linejoin="round" stroke="rgb(0%, 0%, 0%)" stroke-opacity="1" stroke-miterlimit="10" d="M 119.757812 408.449219 L 107.636719 401.453125 L 107.636719 387.457031 L 119.757812 380.457031 L 131.878906 387.457031 L 131.878906 401.453125 Z M 119.757812 408.449219 "/>
<path fill="none" stroke-width="2.25" stroke-linecap="round" stroke-linejoin="round" stroke="rgb(0%, 0%, 0%)" stroke-opacity="1" stroke-miterlimit="10" d="M 119.757812 366.460938 L 107.636719 359.460938 L 107.636719 345.464844 L 119.757812 338.46875 L 131.878906 345.464844 L 131.878906 359.460938 Z M 119.757812 366.460938 "/>
<path fill="none" stroke-width="2.25" stroke-linecap="round" stroke-linejoin="round" stroke="rgb(0%, 0%, 0%)" stroke-opacity="1" stroke-miterlimit="10" d="M 119.757812 324.472656 L 107.636719 317.472656 L 107.636719 303.476562 L 119.757812 296.480469 L 131.878906 303.476562 L 131.878906 317.472656 Z M 119.757812 324.472656 "/>
<path fill="none" stroke-width="2.25" stroke-linecap="round" stroke-linejoin="round" stroke="rgb(0%, 0%, 0%)" stroke-opacity="1" stroke-miterlimit="10" d="M 119.757812 282.484375 L 107.636719 275.484375 L 107.636719 261.488281 L 119.757812 254.488281 L 131.878906 261.488281 L 131.878906 275.484375 Z M 119.757812 282.484375 "/>
<path fill="none" stroke-width="2.25" stroke-linecap="round" stroke-linejoin="round" stroke="rgb(0%, 0%, 0%)" stroke-opacity="1" stroke-miterlimit="10" d="M 119.757812 240.492188 L 107.636719 233.496094 L 107.636719 219.5 L 119.757812 212.5 L 131.878906 219.5 L 131.878906 233.496094 Z M 119.757812 240.492188 "/>
<path fill="none" stroke-width="2.25" stroke-linecap="round" stroke-linejoin="round" stroke="rgb(0%, 0%, 0%)" stroke-opacity="1" stroke-miterlimit="10" d="M 119.757812 198.503906 L 107.636719 191.507812 L 107.636719 177.511719 L 119.757812 170.511719 L 131.878906 177.511719 L 131.878906 191.507812 Z M 119.757812 198.503906 "/>
<path fill="none" stroke-width="2.25" stroke-linecap="round" stroke-linejoin="round" stroke="rgb(0%, 0%, 0%)" stroke-opacity="1" stroke-miterlimit="10" d="M 119.757812 156.515625 L 107.636719 149.515625 L 107.636719 135.519531 L 119.757812 128.523438 L 131.878906 135.519531 L 131.878906 149.515625 Z M 119.757812 156.515625 "/>
<path fill="none" stroke-width="2.25" stroke-linecap="round" stroke-linejoin="round" stroke="rgb(0%, 0%, 0%)" stroke-opacity="1" stroke-miterlimit="10" d="M 119.757812 114.527344 L 107.636719 107.527344 L 107.636719 93.53125 L 119.757812 86.535156 L 131.878906 93.53125 L 131.878906 107.527344 Z M 119.757812 114.527344 "/>
<path fill="none" stroke-width="2.25" stroke-linecap="round" stroke-linejoin="round" stroke="rgb(0%, 0%, 0%)" stroke-opacity="1" stroke-miterlimit="10" d="M 119.757812 72.539062 L 107.636719 65.539062 L 107.636719 51.542969 L 119.757812 44.542969 L 131.878906 51.542969 L 131.878906 65.539062 Z M 119.757812 72.539062 "/>
<path fill="none" stroke-width="2.25" stroke-linecap="round" stroke-linejoin="round" stroke="rgb(0%, 0%, 0%)" stroke-opacity="1" stroke-miterlimit="10" d="M 131.878906 387.457031 L 119.757812 380.457031 L 119.757812 366.460938 L 131.878906 359.460938 L 144 366.460938 L 144 380.457031 Z M 131.878906 387.457031 "/>
<path fill="none" stroke-width="2.25" stroke-linecap="round" stroke-linejoin="round" stroke="rgb(0%, 0%, 0%)" stroke-opacity="1" stroke-miterlimit="10" d="M 131.878906 345.464844 L 119.757812 338.46875 L 119.757812 324.472656 L 131.878906 317.472656 L 144 324.472656 L 144 338.46875 Z M 131.878906 345.464844 "/>
<path fill="none" stroke-width="2.25" stroke-linecap="round" stroke-linejoin="round" stroke="rgb(0%, 0%, 0%)" stroke-opacity="1" stroke-miterlimit="10" d="M 131.878906 303.476562 L 119.757812 296.480469 L 119.757812 282.484375 L 131.878906 275.484375 L 144 282.484375 L 144 296.480469 Z M 131.878906 303.476562 "/>
<path fill="none" stroke-width="2.25" stroke-linecap="round" stroke-linejoin="round" stroke="rgb(0%, 0%, 0%)" stroke-opacity="1" stroke-miterlimit="10" d="M 131.878906 261.488281 L 119.757812 254.488281 L 119.757812 240.492188 L 131.878906 233.496094 L 144 240.492188 L 144 254.488281 Z M 131.878906 261.488281 "/>
<path fill="none" stroke-width="2.25" stroke-linecap="round" stroke-linejoin="round" stroke="rgb(0%, 0%, 0%)" stroke-opacity="1" stroke-miterlimit="10" d="M 131.878906 219.5 L 119.757812 212.5 L 119.757812 198.503906 L 131.878906 191.507812 L 144 198.503906 L 144 212.5 Z M 131.878906 219.5 "/>
<path fill="none" stroke-width="2.25" stroke-linecap="round" stroke-linejoin="round" stroke="rgb(0%, 0%, 0%)" stroke-opacity="1" stroke-miterlimit="10" d="M 131.878906 177.511719 L 119.757812 170.511719 L 119.757812 156.515625 L 131.878906 149.515625 L 144 156.515625 L 144 170.511719 Z M 131.878906 177.511719 "/>
<path fill="none" stroke-width="2.25" stroke-linecap="round" stroke-linejoin="round" stroke="rgb(0%, 0%, 0%)" stroke-opacity="1" stroke-miterlimit="10" d="M 131.878906 135.519531 L 119.757812 128.523438 L 119.757812 114.527344 L 131.878906 107.527344 L 144 114.527344 L 144 128.523438 Z M 131.878906 135.519531 "/>
<path fill="none" stroke-width="2.25" stroke-linecap="round" stroke-linejoin="round" stroke="rgb(0%, 0%, 0%)" stroke-opacity="1" stroke-miterlimit="10" d="M 131.878906 93.53125 L 119.757812 86.535156 L 119.757812 72.539062 L 131.878906 65.539062 L 144 72.539062 L 144 86.535156 Z M 131.878906 93.53125 "/>
<path fill="none" stroke-width="2.25" stroke-linecap="round" stroke-linejoin="round" stroke="rgb(0%, 0%, 0%)" stroke-opacity="1" stroke-miterlimit="10" d="M 144 366.460938 L 131.878906 359.460938 L 131.878906 345.464844 L 144 338.46875 L 156.121094 345.464844 L 156.121094 359.460938 Z M 144 366.460938 "/>
<path fill="none" stroke-width="2.25" stroke-linecap="round" stroke-linejoin="round" stroke="rgb(0%, 0%, 0%)" stroke-opacity="1" stroke-miterlimit="10" d="M 144 324.472656 L 131.878906 317.472656 L 131.878906 303.476562 L 144 296.480469 L 156.121094 303.476562 L 156.121094 317.472656 Z M 144 324.472656 "/>
<path fill="none" stroke-width="2.25" stroke-linecap="round" stroke-linejoin="round" stroke="rgb(0%, 0%, 0%)" stroke-opacity="1" stroke-miterlimit="10" d="M 144 282.484375 L 131.878906 275.484375 L 131.878906 261.488281 L 144 254.488281 L 156.121094 261.488281 L 156.121094 275.484375 Z M 144 282.484375 "/>
<path fill="none" stroke-width="2.25" stroke-linecap="round" stroke-linejoin="round" stroke="rgb(0%, 0%, 0%)" stroke-opacity="1" stroke-miterlimit="10" d="M 144 240.492188 L 131.878906 233.496094 L 131.878906 219.5 L 144 212.5 L 156.121094 219.5 L 156.121094 233.496094 Z M 144 240.492188 "/>
<path fill="none" stroke-width="2.25" stroke-linecap="round" stroke-linejoin="round" stroke="rgb(0%, 0%, 0%)" stroke-opacity="1" stroke-miterlimit="10" d="M 144 198.503906 L 131.878906 191.507812 L 131.878906 177.511719 L 144 170.511719 L 156.121094 177.511719 L 156.121094 191.507812 Z M 144 198.503906 "/>
<path fill="none" stroke-width="2.25" stroke-linecap="round" stroke-linejoin="round" stroke="rgb(0%, 0%, 0%)" stroke-opacity="1" stroke-miterlimit="10" d="M 144 156.515625 L 131.878906 149.515625 L 131.878906 135.519531 L 144 128.523438 L 156.121094 135.519531 L 156.121094 149.515625 Z M 144 156.515625 "/>
<path fill="none" stroke-width="2.25" stroke-linecap="round" stroke-linejoin="round" stroke="rgb(0%, 0%, 0%)" stroke-opacity="1" stroke-miterlimit="10" d="M 156.121094 387.457031 L 144 380.457031 L 144 366.460938 L 156.121094 359.460938 L 168.242188 366.460938 L 168.242188 380.457031 Z M 156.121094 387.457031 "/>
<path fill="none" stroke-width="2.25" stroke-linecap="round" stroke-linejoin="round" stroke="rgb(0%, 0%, 0%)" stroke-opacity="1" stroke-miterlimit="10" d="M 156.121094 345.464844 L 144 338.46875 L 144 324.472656 L 156.121094 317.472656 L 168.242188 324.472656 L 168.242188 338.46875 Z M 156.121094 345.464844 "/>
<path fill="none" stroke-width="2.25" stroke-linecap="round" stroke-linejoin="round" stroke="rgb(0%, 0%, 0%)" stroke-opacity="1" stroke-miterlimit="10" d="M 156.121094 303.476562 L 144 296.480469 L 144 282.484375 L 156.121094 275.484375 L 168.242188 282.484375 L 168.242188 296.480469 Z M 156.121094 303.476562 "/>
<path fill="none" stroke-width="2.25" stroke-linecap="round" stroke-linejoin="round" stroke="rgb(0%, 0%, 0%)" stroke-opacity="1" stroke-miterlimit="10" d="M 156.121094 261.488281 L 144 254.488281 L 144 240.492188 L 156.121094 233.496094 L 168.242188 240.492188 L 168.242188 254.488281 Z M 156.121094 261.488281 "/>
<path fill="none" stroke-width="2.25" stroke-linecap="round" stroke-linejoin="round" stroke="rgb(0%, 0%, 0%)" stroke-opacity="1" stroke-miterlimit="10" d="M 156.121094 219.5 L 144 212.5 L 144 198.503906 L 156.121094 191.507812 L 168.242188 198.503906 L 168.242188 212.5 Z M 156.121094 219.5 "/>
<path fill="none" stroke-width="2.25" stroke-linecap="round" stroke-linejoin="round" stroke="rgb(0%, 0%, 0%)" stroke-opacity="1" stroke-miterlimit="10" d="M 156.121094 177.511719 L 144 170.511719 L 144 156.515625 L 156.121094 149.515625 L 168.242188 156.515625 L 168.242188 170.511719 Z M 156.121094 177.511719 "/>
<path fill="none" stroke-width="2.25" stroke-linecap="round" stroke-linejoin="round" stroke="rgb(0%, 0%, 0%)" stroke-opacity="1" stroke-miterlimit="10" d="M 168.242188 366.460938 L 156.121094 359.460938 L 156.121094 345.464844 L 168.242188 338.46875 L 180.363281 345.464844 L 180.363281 359.460938 Z M 168.242188 366.460938 "/>
<path fill="none" stroke-width="2.25" stroke-linecap="round" stroke-linejoin="round" stroke="rgb(0%, 0%, 0%)" stroke-opacity="1" stroke-miterlimit="10" d="M 168.242188 324.472656 L 156.121094 317.472656 L 156.121094 303.476562 L 168.242188 296.480469 L 180.363281 303.476562 L 180.363281 317.472656 Z M 168.242188 324.472656 "/>
<path fill="none" stroke-width="2.25" stroke-linecap="round" stroke-linejoin="round" stroke="rgb(0%, 0%, 0%)" stroke-opacity="1" stroke-miterlimit="10" d="M 168.242188 282.484375 L 156.121094 275.484375 L 156.121094 261.488281 L 168.242188 254.488281 L 180.363281 261.488281 L 180.363281 275.484375 Z M 168.242188 282.484375 "/>
<path fill="none" stroke-width="2.25" stroke-linecap="round" stroke-linejoin="round" stroke="rgb(0%, 0%, 0%)" stroke-opacity="1" stroke-miterlimit="10" d="M 168.242188 240.492188 L 156.121094 233.496094 L 156.121094 219.5 L 168.242188 212.5 L 180.363281 219.5 L 180.363281 233.496094 Z M 168.242188 240.492188 "/>
<path fill="none" stroke-width="2.25" stroke-linecap="round" stroke-linejoin="round" stroke="rgb(0%, 0%, 0%)" stroke-opacity="1" stroke-miterlimit="10" d="M 168.242188 198.503906 L 156.121094 191.507812 L 156.121094 177.511719 L 168.242188 170.511719 L 180.363281 177.511719 L 180.363281 191.507812 Z M 168.242188 198.503906 "/>
<path fill="none" stroke-width="2.25" stroke-linecap="round" stroke-linejoin="round" stroke="rgb(0%, 0%, 0%)" stroke-opacity="1" stroke-miterlimit="10" d="M 180.363281 387.457031 L 168.242188 380.457031 L 168.242188 366.460938 L 180.363281 359.460938 L 192.484375 366.460938 L 192.484375 380.457031 Z M 180.363281 387.457031 "/>
<path fill="none" stroke-width="2.25" stroke-linecap="round" stroke-linejoin="round" stroke="rgb(0%, 0%, 0%)" stroke-opacity="1" stroke-miterlimit="10" d="M 180.363281 345.464844 L 168.242188 338.46875 L 168.242188 324.472656 L 180.363281 317.472656 L 192.484375 324.472656 L 192.484375 338.46875 Z M 180.363281 345.464844 "/>
<path fill="none" stroke-width="2.25" stroke-linecap="round" stroke-linejoin="round" stroke="rgb(0%, 0%, 0%)" stroke-opacity="1" stroke-miterlimit="10" d="M 180.363281 303.476562 L 168.242188 296.480469 L 168.242188 282.484375 L 180.363281 275.484375 L 192.484375 282.484375 L 192.484375 296.480469 Z M 180.363281 303.476562 "/>
<path fill="none" stroke-width="2.25" stroke-linecap="round" stroke-linejoin="round" stroke="rgb(0%, 0%, 0%)" stroke-opacity="1" stroke-miterlimit="10" d="M 180.363281 261.488281 L 168.242188 254.488281 L 168.242188 240.492188 L 180.363281 233.496094 L 192.484375 240.492188 L 192.484375 254.488281 Z M 180.363281 261.488281 "/>
<path fill="none" stroke-width="2.25" stroke-linecap="round" stroke-linejoin="round" stroke="rgb(0%, 0%, 0%)" stroke-opacity="1" stroke-miterlimit="10" d="M 180.363281 219.5 L 168.242188 212.5 L 168.242188 198.503906 L 180.363281 191.507812 L 192.484375 198.503906 L 192.484375 212.5 Z M 180.363281 219.5 "/>
<path fill="none" stroke-width="2.25" stroke-linecap="round" stroke-linejoin="round" stroke="rgb(0%, 0%, 0%)" stroke-opacity="1" stroke-miterlimit="10" d="M 192.484375 366.460938 L 180.363281 359.460938 L 180.363281 345.464844 L 192.484375 338.46875 L 204.605469 345.464844 L 204.605469 359.460938 Z M 192.484375 366.460938 "/>
<path fill="none" stroke-width="2.25" stroke-linecap="round" stroke-linejoin="round" stroke="rgb(0%, 0%, 0%)" stroke-opacity="1" stroke-miterlimit="10" d="M 192.484375 324.472656 L 180.363281 317.472656 L 180.363281 303.476562 L 192.484375 296.480469 L 204.605469 303.476562 L 204.605469 317.472656 Z M 192.484375 324.472656 "/>
<path fill="none" stroke-width="2.25" stroke-linecap="round" stroke-linejoin="round" stroke="rgb(0%, 0%, 0%)" stroke-opacity="1" stroke-miterlimit="10" d="M 192.484375 282.484375 L 180.363281 275.484375 L 180.363281 261.488281 L 192.484375 254.488281 L 204.605469 261.488281 L 204.605469 275.484375 Z M 192.484375 282.484375 "/>
<path fill="none" stroke-width="2.25" stroke-linecap="round" stroke-linejoin="round" stroke="rgb(0%, 0%, 0%)" stroke-opacity="1" stroke-miterlimit="10" d="M 192.484375 240.492188 L 180.363281 233.496094 L 180.363281 219.5 L 192.484375 212.5 L 204.605469 219.5 L 204.605469 233.496094 Z M 192.484375 240.492188 "/>
<path fill="none" stroke-width="2.25" stroke-linecap="round" stroke-linejoin="round" stroke="rgb(0%, 0%, 0%)" stroke-opacity="1" stroke-miterlimit="10" d="M 204.605469 387.457031 L 192.484375 380.457031 L 192.484375 366.460938 L 204.605469 359.460938 L 216.726562 366.460938 L 216.726562 380.457031 Z M 204.605469 387.457031 "/>
<path fill="none" stroke-width="2.25" stroke-linecap="round" stroke-linejoin="round" stroke="rgb(0%, 0%, 0%)" stroke-opacity="1" stroke-miterlimit="10" d="M 204.605469 345.464844 L 192.484375 338.46875 L 192.484375 324.472656 L 204.605469 317.472656 L 216.726562 324.472656 L 216.726562 338.46875 Z M 204.605469 345.464844 "/>
<path fill="none" stroke-width="2.25" stroke-linecap="round" stroke-linejoin="round" stroke="rgb(0%, 0%, 0%)" stroke-opacity="1" stroke-miterlimit="10" d="M 204.605469 303.476562 L 192.484375 296.480469 L 192.484375 282.484375 L 204.605469 275.484375 L 216.726562 282.484375 L 216.726562 296.480469 Z M 204.605469 303.476562 "/>
<path fill="none" stroke-width="2.25" stroke-linecap="round" stroke-linejoin="round" stroke="rgb(0%, 0%, 0%)" stroke-opacity="1" stroke-miterlimit="10" d="M 204.605469 261.488281 L 192.484375 254.488281 L 192.484375 240.492188 L 204.605469 233.496094 L 216.726562 240.492188 L 216.726562 254.488281 Z M 204.605469 261.488281 "/>
<path fill="none" stroke-width="2.25" stroke-linecap="round" stroke-linejoin="round" stroke="rgb(0%, 0%, 0%)" stroke-opacity="1" stroke-miterlimit="10" d="M 204.605469 219.5 L 192.484375 212.5 L 192.484375 198.503906 L 204.605469 191.507812 L 216.726562 198.503906 L 216.726562 212.5 Z M 204.605469 219.5 "/>
<path fill="none" stroke-width="2.25" stroke-linecap="round" stroke-linejoin="round" stroke="rgb(0%, 0%, 0%)" stroke-opacity="1" stroke-miterlimit="10" d="M 216.726562 408.449219 L 204.605469 401.453125 L 204.605469 387.457031 L 216.726562 380.457031 L 228.847656 387.457031 L 228.847656 401.453125 Z M 216.726562 408.449219 "/>
<path fill="none" stroke-width="2.25" stroke-linecap="round" stroke-linejoin="round" stroke="rgb(0%, 0%, 0%)" stroke-opacity="1" stroke-miterlimit="10" d="M 216.726562 366.460938 L 204.605469 359.460938 L 204.605469 345.464844 L 216.726562 338.46875 L 228.847656 345.464844 L 228.847656 359.460938 Z M 216.726562 366.460938 "/>
<path fill="none" stroke-width="2.25" stroke-linecap="round" stroke-linejoin="round" stroke="rgb(0%, 0%, 0%)" stroke-opacity="1" stroke-miterlimit="10" d="M 216.726562 324.472656 L 204.605469 317.472656 L 204.605469 303.476562 L 216.726562 296.480469 L 228.847656 303.476562 L 228.847656 317.472656 Z M 216.726562 324.472656 "/>
<path fill="none" stroke-width="2.25" stroke-linecap="round" stroke-linejoin="round" stroke="rgb(0%, 0%, 0%)" stroke-opacity="1" stroke-miterlimit="10" d="M 216.726562 282.484375 L 204.605469 275.484375 L 204.605469 261.488281 L 216.726562 254.488281 L 228.847656 261.488281 L 228.847656 275.484375 Z M 216.726562 282.484375 "/>
<path fill="none" stroke-width="2.25" stroke-linecap="round" stroke-linejoin="round" stroke="rgb(0%, 0%, 0%)" stroke-opacity="1" stroke-miterlimit="10" d="M 216.726562 240.492188 L 204.605469 233.496094 L 204.605469 219.5 L 216.726562 212.5 L 228.847656 219.5 L 228.847656 233.496094 Z M 216.726562 240.492188 "/>
<path fill="none" stroke-width="2.25" stroke-linecap="round" stroke-linejoin="round" stroke="rgb(0%, 0%, 0%)" stroke-opacity="1" stroke-miterlimit="10" d="M 228.847656 345.464844 L 216.726562 338.46875 L 216.726562 324.472656 L 228.847656 317.472656 L 240.96875 324.472656 L 240.96875 338.46875 Z M 228.847656 345.464844 "/>
<path fill="none" stroke-width="2.25" stroke-linecap="round" stroke-linejoin="round" stroke="rgb(0%, 0%, 0%)" stroke-opacity="1" stroke-miterlimit="10" d="M 228.847656 303.476562 L 216.726562 296.480469 L 216.726562 282.484375 L 228.847656 275.484375 L 240.96875 282.484375 L 240.96875 296.480469 Z M 228.847656 303.476562 "/>
<path fill="none" stroke-width="2.25" stroke-linecap="round" stroke-linejoin="round" stroke="rgb(0%, 0%, 0%)" stroke-opacity="1" stroke-miterlimit="10" d="M 228.847656 261.488281 L 216.726562 254.488281 L 216.726562 240.492188 L 228.847656 233.496094 L 240.96875 240.492188 L 240.96875 254.488281 Z M 228.847656 261.488281 "/>
<path fill="none" stroke-width="2.25" stroke-linecap="round" stroke-linejoin="round" stroke="rgb(0%, 0%, 0%)" stroke-opacity="1" stroke-miterlimit="10" d="M 240.96875 324.472656 L 228.847656 317.472656 L 228.847656 303.476562 L 240.96875 296.480469 L 253.089844 303.476562 L 253.089844 317.472656 Z M 240.96875 324.472656 "/>
<path fill="none" stroke-width="2.25" stroke-linecap="round" stroke-linejoin="round" stroke="rgb(0%, 0%, 0%)" stroke-opacity="1" stroke-miterlimit="10" d="M 240.96875 282.484375 L 228.847656 275.484375 L 228.847656 261.488281 L 240.96875 254.488281 L 253.089844 261.488281 L 253.089844 275.484375 Z M 240.96875 282.484375 "/>
<path fill="none" stroke-width="2.25" stroke-linecap="round" stroke-linejoin="round" stroke="rgb(0%, 0%, 0%)" stroke-opacity="1" stroke-miterlimit="10" d="M 240.96875 240.492188 L 228.847656 233.496094 L 228.847656 219.5 L 240.96875 212.5 L 253.089844 219.5 L 253.089844 233.496094 Z M 240.96875 240.492188 "/>
<path fill="none" stroke-width="2.25" stroke-linecap="round" stroke-linejoin="round" stroke="rgb(0%, 0%, 0%)" stroke-opacity="1" stroke-miterlimit="10" d="M 253.089844 303.476562 L 240.96875 296.480469 L 240.96875 282.484375 L 253.089844 275.484375 L 265.210938 282.484375 L 265.210938 296.480469 Z M 253.089844 303.476562 "/>
<path fill="none" stroke-width="2.25" stroke-linecap="round" stroke-linejoin="round" stroke="rgb(0%, 0%, 0%)" stroke-opacity="1" stroke-miterlimit="10" d="M 253.089844 261.488281 L 240.96875 254.488281 L 240.96875 240.492188 L 253.089844 233.496094 L 265.210938 240.492188 L 265.210938 254.488281 Z M 253.089844 261.488281 "/>
<path fill="none" stroke-width="2.25" stroke-linecap="round" stroke-linejoin="round" stroke="rgb(0%, 0%, 0%)" stroke-opacity="1" stroke-miterlimit="10" d="M 265.210938 282.484375 L 253.089844 275.484375 L 253.089844 261.488281 L 265.210938 254.488281 L 277.332031 261.488281 L 277.332031 275.484375 Z M 265.210938 282.484375 "/>
<path fill="none" stroke-width="2.25" stroke-linecap="round" stroke-linejoin="round" stroke="rgb(0%, 0%, 0%)" stroke-opacity="1" stroke-miterlimit="10" d="M 265.210938 240.492188 L 253.089844 233.496094 L 253.089844 219.5 L 265.210938 212.5 L 277.332031 219.5 L 277.332031 233.496094 Z M 265.210938 240.492188 "/>
<path fill-rule="evenodd" fill="rgb(95.686275%, 64.313725%, 37.647059%)" fill-opacity="1" d="M 22.789062 240.492188 L 10.667969 233.496094 L 10.667969 219.5 L 22.789062 212.5 L 34.910156 219.5 L 34.910156 233.496094 Z M 22.789062 240.492188 "/>
<path fill-rule="evenodd" fill="rgb(95.686275%, 64.313725%, 37.647059%)" fill-opacity="1" d="M 22.789062 198.503906 L 10.667969 191.507812 L 10.667969 177.511719 L 22.789062 170.511719 L 34.910156 177.511719 L 34.910156 191.507812 Z M 22.789062 198.503906 "/>
<path fill-rule="evenodd" fill="rgb(95.686275%, 64.313725%, 37.647059%)" fill-opacity="1" d="M 34.910156 219.5 L 22.789062 212.5 L 22.789062 198.503906 L 34.910156 191.507812 L 47.03125 198.503906 L 47.03125 212.5 Z M 34.910156 219.5 "/>
<path fill-rule="evenodd" fill="rgb(95.686275%, 64.313725%, 37.647059%)" fill-opacity="1" d="M 34.910156 177.511719 L 22.789062 170.511719 L 22.789062 156.515625 L 34.910156 149.515625 L 47.03125 156.515625 L 47.03125 170.511719 Z M 34.910156 177.511719 "/>
<path fill-rule="evenodd" fill="rgb(95.686275%, 64.313725%, 37.647059%)" fill-opacity="1" d="M 47.03125 282.484375 L 34.910156 275.484375 L 34.910156 261.488281 L 47.03125 254.488281 L 59.152344 261.488281 L 59.152344 275.484375 Z M 47.03125 282.484375 "/>
<path fill-rule="evenodd" fill="rgb(95.686275%, 64.313725%, 37.647059%)" fill-opacity="1" d="M 47.03125 240.492188 L 34.910156 233.496094 L 34.910156 219.5 L 47.03125 212.5 L 59.152344 219.5 L 59.152344 233.496094 Z M 47.03125 240.492188 "/>
<path fill-rule="evenodd" fill="rgb(95.686275%, 64.313725%, 37.647059%)" fill-opacity="1" d="M 47.03125 198.503906 L 34.910156 191.507812 L 34.910156 177.511719 L 47.03125 170.511719 L 59.152344 177.511719 L 59.152344 191.507812 Z M 47.03125 198.503906 "/>
<path fill-rule="evenodd" fill="rgb(95.686275%, 64.313725%, 37.647059%)" fill-opacity="1" d="M 47.03125 156.515625 L 34.910156 149.515625 L 34.910156 135.519531 L 47.03125 128.523438 L 59.152344 135.519531 L 59.152344 149.515625 Z M 47.03125 156.515625 "/>
<path fill-rule="evenodd" fill="rgb(95.686275%, 64.313725%, 37.647059%)" fill-opacity="1" d="M 59.152344 387.457031 L 47.03125 380.457031 L 47.03125 366.460938 L 59.152344 359.460938 L 71.273438 366.460938 L 71.273438 380.457031 Z M 59.152344 387.457031 "/>
<path fill-rule="evenodd" fill="rgb(95.686275%, 64.313725%, 37.647059%)" fill-opacity="1" d="M 59.152344 345.464844 L 47.03125 338.46875 L 47.03125 324.472656 L 59.152344 317.472656 L 71.273438 324.472656 L 71.273438 338.46875 Z M 59.152344 345.464844 "/>
<path fill-rule="evenodd" fill="rgb(95.686275%, 64.313725%, 37.647059%)" fill-opacity="1" d="M 59.152344 303.476562 L 47.03125 296.480469 L 47.03125 282.484375 L 59.152344 275.484375 L 71.273438 282.484375 L 71.273438 296.480469 Z M 59.152344 303.476562 "/>
<path fill-rule="evenodd" fill="rgb(95.686275%, 64.313725%, 37.647059%)" fill-opacity="1" d="M 59.152344 261.488281 L 47.03125 254.488281 L 47.03125 240.492188 L 59.152344 233.496094 L 71.273438 240.492188 L 71.273438 254.488281 Z M 59.152344 261.488281 "/>
<path fill-rule="evenodd" fill="rgb(95.686275%, 64.313725%, 37.647059%)" fill-opacity="1" d="M 59.152344 219.5 L 47.03125 212.5 L 47.03125 198.503906 L 59.152344 191.507812 L 71.273438 198.503906 L 71.273438 212.5 Z M 59.152344 219.5 "/>
<path fill-rule="evenodd" fill="rgb(95.686275%, 64.313725%, 37.647059%)" fill-opacity="1" d="M 59.152344 177.511719 L 47.03125 170.511719 L 47.03125 156.515625 L 59.152344 149.515625 L 71.273438 156.515625 L 71.273438 170.511719 Z M 59.152344 177.511719 "/>
<path fill-rule="evenodd" fill="rgb(95.686275%, 64.313725%, 37.647059%)" fill-opacity="1" d="M 59.152344 135.519531 L 47.03125 128.523438 L 47.03125 114.527344 L 59.152344 107.527344 L 71.273438 114.527344 L 71.273438 128.523438 Z M 59.152344 135.519531 "/>
<path fill-rule="evenodd" fill="rgb(95.686275%, 64.313725%, 37.647059%)" fill-opacity="1" d="M 71.273438 366.460938 L 59.152344 359.460938 L 59.152344 345.464844 L 71.273438 338.46875 L 83.394531 345.464844 L 83.394531 359.460938 Z M 71.273438 366.460938 "/>
<path fill-rule="evenodd" fill="rgb(95.686275%, 64.313725%, 37.647059%)" fill-opacity="1" d="M 71.273438 324.472656 L 59.152344 317.472656 L 59.152344 303.476562 L 71.273438 296.480469 L 83.394531 303.476562 L 83.394531 317.472656 Z M 71.273438 324.472656 "/>
<path fill-rule="evenodd" fill="rgb(95.686275%, 64.313725%, 37.647059%)" fill-opacity="1" d="M 71.273438 282.484375 L 59.152344 275.484375 L 59.152344 261.488281 L 71.273438 254.488281 L 83.394531 261.488281 L 83.394531 275.484375 Z M 71.273438 282.484375 "/>
<path fill-rule="evenodd" fill="rgb(95.686275%, 64.313725%, 37.647059%)" fill-opacity="1" d="M 71.273438 240.492188 L 59.152344 233.496094 L 59.152344 219.5 L 71.273438 212.5 L 83.394531 219.5 L 83.394531 233.496094 Z M 71.273438 240.492188 "/>
<path fill-rule="evenodd" fill="rgb(95.686275%, 64.313725%, 37.647059%)" fill-opacity="1" d="M 71.273438 198.503906 L 59.152344 191.507812 L 59.152344 177.511719 L 71.273438 170.511719 L 83.394531 177.511719 L 83.394531 191.507812 Z M 71.273438 198.503906 "/>
<path fill-rule="evenodd" fill="rgb(95.686275%, 64.313725%, 37.647059%)" fill-opacity="1" d="M 71.273438 156.515625 L 59.152344 149.515625 L 59.152344 135.519531 L 71.273438 128.523438 L 83.394531 135.519531 L 83.394531 149.515625 Z M 71.273438 156.515625 "/>
<path fill-rule="evenodd" fill="rgb(95.686275%, 64.313725%, 37.647059%)" fill-opacity="1" d="M 71.273438 114.527344 L 59.152344 107.527344 L 59.152344 93.53125 L 71.273438 86.535156 L 83.394531 93.53125 L 83.394531 107.527344 Z M 71.273438 114.527344 "/>
<path fill-rule="evenodd" fill="rgb(95.686275%, 64.313725%, 37.647059%)" fill-opacity="1" d="M 83.394531 387.457031 L 71.273438 380.457031 L 71.273438 366.460938 L 83.394531 359.460938 L 95.515625 366.460938 L 95.515625 380.457031 Z M 83.394531 387.457031 "/>
<path fill-rule="evenodd" fill="rgb(95.686275%, 64.313725%, 37.647059%)" fill-opacity="1" d="M 83.394531 345.464844 L 71.273438 338.46875 L 71.273438 324.472656 L 83.394531 317.472656 L 95.515625 324.472656 L 95.515625 338.46875 Z M 83.394531 345.464844 "/>
<path fill-rule="evenodd" fill="rgb(95.686275%, 64.313725%, 37.647059%)" fill-opacity="1" d="M 83.394531 303.476562 L 71.273438 296.480469 L 71.273438 282.484375 L 83.394531 275.484375 L 95.515625 282.484375 L 95.515625 296.480469 Z M 83.394531 303.476562 "/>
<path fill-rule="evenodd" fill="rgb(95.686275%, 64.313725%, 37.647059%)" fill-opacity="1" d="M 83.394531 261.488281 L 71.273438 254.488281 L 71.273438 240.492188 L 83.394531 233.496094 L 95.515625 240.492188 L 95.515625 254.488281 Z M 83.394531 261.488281 "/>
<path fill-rule="evenodd" fill="rgb(95.686275%, 64.313725%, 37.647059%)" fill-opacity="1" d="M 83.394531 219.5 L 71.273438 212.5 L 71.273438 198.503906 L 83.394531 191.507812 L 95.515625 198.503906 L 95.515625 212.5 Z M 83.394531 219.5 "/>
<path fill-rule="evenodd" fill="rgb(95.686275%, 64.313725%, 37.647059%)" fill-opacity="1" d="M 83.394531 177.511719 L 71.273438 170.511719 L 71.273438 156.515625 L 83.394531 149.515625 L 95.515625 156.515625 L 95.515625 170.511719 Z M 83.394531 177.511719 "/>
<path fill-rule="evenodd" fill="rgb(95.686275%, 64.313725%, 37.647059%)" fill-opacity="1" d="M 83.394531 135.519531 L 71.273438 128.523438 L 71.273438 114.527344 L 83.394531 107.527344 L 95.515625 114.527344 L 95.515625 128.523438 Z M 83.394531 135.519531 "/>
<path fill-rule="evenodd" fill="rgb(95.686275%, 64.313725%, 37.647059%)" fill-opacity="1" d="M 83.394531 93.53125 L 71.273438 86.535156 L 71.273438 72.539062 L 83.394531 65.539062 L 95.515625 72.539062 L 95.515625 86.535156 Z M 83.394531 93.53125 "/>
<path fill-rule="evenodd" fill="rgb(95.686275%, 64.313725%, 37.647059%)" fill-opacity="1" d="M 95.515625 408.449219 L 83.394531 401.453125 L 83.394531 387.457031 L 95.515625 380.457031 L 107.636719 387.457031 L 107.636719 401.453125 Z M 95.515625 408.449219 "/>
<path fill-rule="evenodd" fill="rgb(95.686275%, 64.313725%, 37.647059%)" fill-opacity="1" d="M 95.515625 366.460938 L 83.394531 359.460938 L 83.394531 345.464844 L 95.515625 338.46875 L 107.636719 345.464844 L 107.636719 359.460938 Z M 95.515625 366.460938 "/>
<path fill-rule="evenodd" fill="rgb(95.686275%, 64.313725%, 37.647059%)" fill-opacity="1" d="M 95.515625 324.472656 L 83.394531 317.472656 L 83.394531 303.476562 L 95.515625 296.480469 L 107.636719 303.476562 L 107.636719 317.472656 Z M 95.515625 324.472656 "/>
<path fill-rule="evenodd" fill="rgb(95.686275%, 64.313725%, 37.647059%)" fill-opacity="1" d="M 95.515625 282.484375 L 83.394531 275.484375 L 83.394531 261.488281 L 95.515625 254.488281 L 107.636719 261.488281 L 107.636719 275.484375 Z M 95.515625 282.484375 "/>
<path fill-rule="evenodd" fill="rgb(95.686275%, 64.313725%, 37.647059%)" fill-opacity="1" d="M 95.515625 240.492188 L 83.394531 233.496094 L 83.394531 219.5 L 95.515625 212.5 L 107.636719 219.5 L 107.636719 233.496094 Z M 95.515625 240.492188 "/>
<path fill-rule="evenodd" fill="rgb(95.686275%, 64.313725%, 37.647059%)" fill-opacity="1" d="M 95.515625 198.503906 L 83.394531 191.507812 L 83.394531 177.511719 L 95.515625 170.511719 L 107.636719 177.511719 L 107.636719 191.507812 Z M 95.515625 198.503906 "/>
<path fill-rule="evenodd" fill="rgb(95.686275%, 64.313725%, 37.647059%)" fill-opacity="1" d="M 95.515625 156.515625 L 83.394531 149.515625 L 83.394531 135.519531 L 95.515625 128.523438 L 107.636719 135.519531 L 107.636719 149.515625 Z M 95.515625 156.515625 "/>
<path fill-rule="evenodd" fill="rgb(95.686275%, 64.313725%, 37.647059%)" fill-opacity="1" d="M 95.515625 114.527344 L 83.394531 107.527344 L 83.394531 93.53125 L 95.515625 86.535156 L 107.636719 93.53125 L 107.636719 107.527344 Z M 95.515625 114.527344 "/>
<path fill-rule="evenodd" fill="rgb(95.686275%, 64.313725%, 37.647059%)" fill-opacity="1" d="M 95.515625 72.539062 L 83.394531 65.539062 L 83.394531 51.542969 L 95.515625 44.542969 L 107.636719 51.542969 L 107.636719 65.539062 Z M 95.515625 72.539062 "/>
<path fill-rule="evenodd" fill="rgb(95.686275%, 64.313725%, 37.647059%)" fill-opacity="1" d="M 107.636719 387.457031 L 95.515625 380.457031 L 95.515625 366.460938 L 107.636719 359.460938 L 119.757812 366.460938 L 119.757812 380.457031 Z M 107.636719 387.457031 "/>
<path fill-rule="evenodd" fill="rgb(95.686275%, 64.313725%, 37.647059%)" fill-opacity="1" d="M 107.636719 345.464844 L 95.515625 338.46875 L 95.515625 324.472656 L 107.636719 317.472656 L 119.757812 324.472656 L 119.757812 338.46875 Z M 107.636719 345.464844 "/>
<path fill-rule="evenodd" fill="rgb(95.686275%, 64.313725%, 37.647059%)" fill-opacity="1" d="M 107.636719 303.476562 L 95.515625 296.480469 L 95.515625 282.484375 L 107.636719 275.484375 L 119.757812 282.484375 L 119.757812 296.480469 Z M 107.636719 303.476562 "/>
<path fill-rule="evenodd" fill="rgb(95.686275%, 64.313725%, 37.647059%)" fill-opacity="1" d="M 107.636719 261.488281 L 95.515625 254.488281 L 95.515625 240.492188 L 107.636719 233.496094 L 119.757812 240.492188 L 119.757812 254.488281 Z M 107.636719 261.488281 "/>
<path fill-rule="evenodd" fill="rgb(95.686275%, 64.313725%, 37.647059%)" fill-opacity="1" d="M 107.636719 219.5 L 95.515625 212.5 L 95.515625 198.503906 L 107.636719 191.507812 L 119.757812 198.503906 L 119.757812 212.5 Z M 107.636719 219.5 "/>
<path fill-rule="evenodd" fill="rgb(95.686275%, 64.313725%, 37.647059%)" fill-opacity="1" d="M 107.636719 177.511719 L 95.515625 170.511719 L 95.515625 156.515625 L 107.636719 149.515625 L 119.757812 156.515625 L 119.757812 170.511719 Z M 107.636719 177.511719 "/>
<path fill-rule="evenodd" fill="rgb(95.686275%, 64.313725%, 37.647059%)" fill-opacity="1" d="M 107.636719 135.519531 L 95.515625 128.523438 L 95.515625 114.527344 L 107.636719 107.527344 L 119.757812 114.527344 L 119.757812 128.523438 Z M 107.636719 135.519531 "/>
<path fill-rule="evenodd" fill="rgb(95.686275%, 64.313725%, 37.647059%)" fill-opacity="1" d="M 107.636719 93.53125 L 95.515625 86.535156 L 95.515625 72.539062 L 107.636719 65.539062 L 119.757812 72.539062 L 119.757812 86.535156 Z M 107.636719 93.53125 "/>
<path fill-rule="evenodd" fill="rgb(95.686275%, 64.313725%, 37.647059%)" fill-opacity="1" d="M 107.636719 51.542969 L 95.515625 44.542969 L 95.515625 30.546875 L 107.636719 23.550781 L 119.757812 30.546875 L 119.757812 44.542969 Z M 107.636719 51.542969 "/>
<path fill-rule="evenodd" fill="rgb(95.686275%, 64.313725%, 37.647059%)" fill-opacity="1" d="M 119.757812 408.449219 L 107.636719 401.453125 L 107.636719 387.457031 L 119.757812 380.457031 L 131.878906 387.457031 L 131.878906 401.453125 Z M 119.757812 408.449219 "/>
<path fill-rule="evenodd" fill="rgb(95.686275%, 64.313725%, 37.647059%)" fill-opacity="1" d="M 119.757812 366.460938 L 107.636719 359.460938 L 107.636719 345.464844 L 119.757812 338.46875 L 131.878906 345.464844 L 131.878906 359.460938 Z M 119.757812 366.460938 "/>
<path fill-rule="evenodd" fill="rgb(95.686275%, 64.313725%, 37.647059%)" fill-opacity="1" d="M 119.757812 324.472656 L 107.636719 317.472656 L 107.636719 303.476562 L 119.757812 296.480469 L 131.878906 303.476562 L 131.878906 317.472656 Z M 119.757812 324.472656 "/>
<path fill-rule="evenodd" fill="rgb(95.686275%, 64.313725%, 37.647059%)" fill-opacity="1" d="M 119.757812 282.484375 L 107.636719 275.484375 L 107.636719 261.488281 L 119.757812 254.488281 L 131.878906 261.488281 L 131.878906 275.484375 Z M 119.757812 282.484375 "/>
<path fill-rule="evenodd" fill="rgb(95.686275%, 64.313725%, 37.647059%)" fill-opacity="1" d="M 119.757812 240.492188 L 107.636719 233.496094 L 107.636719 219.5 L 119.757812 212.5 L 131.878906 219.5 L 131.878906 233.496094 Z M 119.757812 240.492188 "/>
<path fill-rule="evenodd" fill="rgb(95.686275%, 64.313725%, 37.647059%)" fill-opacity="1" d="M 119.757812 198.503906 L 107.636719 191.507812 L 107.636719 177.511719 L 119.757812 170.511719 L 131.878906 177.511719 L 131.878906 191.507812 Z M 119.757812 198.503906 "/>
<path fill-rule="evenodd" fill="rgb(95.686275%, 64.313725%, 37.647059%)" fill-opacity="1" d="M 119.757812 156.515625 L 107.636719 149.515625 L 107.636719 135.519531 L 119.757812 128.523438 L 131.878906 135.519531 L 131.878906 149.515625 Z M 119.757812 156.515625 "/>
<path fill-rule="evenodd" fill="rgb(95.686275%, 64.313725%, 37.647059%)" fill-opacity="1" d="M 119.757812 114.527344 L 107.636719 107.527344 L 107.636719 93.53125 L 119.757812 86.535156 L 131.878906 93.53125 L 131.878906 107.527344 Z M 119.757812 114.527344 "/>
<path fill-rule="evenodd" fill="rgb(95.686275%, 64.313725%, 37.647059%)" fill-opacity="1" d="M 119.757812 72.539062 L 107.636719 65.539062 L 107.636719 51.542969 L 119.757812 44.542969 L 131.878906 51.542969 L 131.878906 65.539062 Z M 119.757812 72.539062 "/>
<path fill-rule="evenodd" fill="rgb(95.686275%, 64.313725%, 37.647059%)" fill-opacity="1" d="M 131.878906 387.457031 L 119.757812 380.457031 L 119.757812 366.460938 L 131.878906 359.460938 L 144 366.460938 L 144 380.457031 Z M 131.878906 387.457031 "/>
<path fill-rule="evenodd" fill="rgb(95.686275%, 64.313725%, 37.647059%)" fill-opacity="1" d="M 131.878906 345.464844 L 119.757812 338.46875 L 119.757812 324.472656 L 131.878906 317.472656 L 144 324.472656 L 144 338.46875 Z M 131.878906 345.464844 "/>
<path fill-rule="evenodd" fill="rgb(95.686275%, 64.313725%, 37.647059%)" fill-opacity="1" d="M 131.878906 303.476562 L 119.757812 296.480469 L 119.757812 282.484375 L 131.878906 275.484375 L 144 282.484375 L 144 296.480469 Z M 131.878906 303.476562 "/>
<path fill-rule="evenodd" fill="rgb(95.686275%, 64.313725%, 37.647059%)" fill-opacity="1" d="M 131.878906 261.488281 L 119.757812 254.488281 L 119.757812 240.492188 L 131.878906 233.496094 L 144 240.492188 L 144 254.488281 Z M 131.878906 261.488281 "/>
<path fill-rule="evenodd" fill="rgb(95.686275%, 64.313725%, 37.647059%)" fill-opacity="1" d="M 131.878906 219.5 L 119.757812 212.5 L 119.757812 198.503906 L 131.878906 191.507812 L 144 198.503906 L 144 212.5 Z M 131.878906 219.5 "/>
<path fill-rule="evenodd" fill="rgb(95.686275%, 64.313725%, 37.647059%)" fill-opacity="1" d="M 131.878906 177.511719 L 119.757812 170.511719 L 119.757812 156.515625 L 131.878906 149.515625 L 144 156.515625 L 144 170.511719 Z M 131.878906 177.511719 "/>
<path fill-rule="evenodd" fill="rgb(95.686275%, 64.313725%, 37.647059%)" fill-opacity="1" d="M 131.878906 135.519531 L 119.757812 128.523438 L 119.757812 114.527344 L 131.878906 107.527344 L 144 114.527344 L 144 128.523438 Z M 131.878906 135.519531 "/>
<path fill-rule="evenodd" fill="rgb(95.686275%, 64.313725%, 37.647059%)" fill-opacity="1" d="M 131.878906 93.53125 L 119.757812 86.535156 L 119.757812 72.539062 L 131.878906 65.539062 L 144 72.539062 L 144 86.535156 Z M 131.878906 93.53125 "/>
<path fill-rule="evenodd" fill="rgb(95.686275%, 64.313725%, 37.647059%)" fill-opacity="1" d="M 144 366.460938 L 131.878906 359.460938 L 131.878906 345.464844 L 144 338.46875 L 156.121094 345.464844 L 156.121094 359.460938 Z M 144 366.460938 "/>
<path fill-rule="evenodd" fill="rgb(95.686275%, 64.313725%, 37.647059%)" fill-opacity="1" d="M 144 324.472656 L 131.878906 317.472656 L 131.878906 303.476562 L 144 296.480469 L 156.121094 303.476562 L 156.121094 317.472656 Z M 144 324.472656 "/>
<path fill-rule="evenodd" fill="rgb(95.686275%, 64.313725%, 37.647059%)" fill-opacity="1" d="M 144 282.484375 L 131.878906 275.484375 L 131.878906 261.488281 L 144 254.488281 L 156.121094 261.488281 L 156.121094 275.484375 Z M 144 282.484375 "/>
<path fill-rule="evenodd" fill="rgb(95.686275%, 64.313725%, 37.647059%)" fill-opacity="1" d="M 144 240.492188 L 131.878906 233.496094 L 131.878906 219.5 L 144 212.5 L 156.121094 219.5 L 156.121094 233.496094 Z M 144 240.492188 "/>
<path fill-rule="evenodd" fill="rgb(95.686275%, 64.313725%, 37.647059%)" fill-opacity="1" d="M 144 198.503906 L 131.878906 191.507812 L 131.878906 177.511719 L 144 170.511719 L 156.121094 177.511719 L 156.121094 191.507812 Z M 144 198.503906 "/>
<path fill-rule="evenodd" fill="rgb(95.686275%, 64.313725%, 37.647059%)" fill-opacity="1" d="M 144 156.515625 L 131.878906 149.515625 L 131.878906 135.519531 L 144 128.523438 L 156.121094 135.519531 L 156.121094 149.515625 Z M 144 156.515625 "/>
<path fill-rule="evenodd" fill="rgb(95.686275%, 64.313725%, 37.647059%)" fill-opacity="1" d="M 156.121094 387.457031 L 144 380.457031 L 144 366.460938 L 156.121094 359.460938 L 168.242188 366.460938 L 168.242188 380.457031 Z M 156.121094 387.457031 "/>
<path fill-rule="evenodd" fill="rgb(95.686275%, 64.313725%, 37.647059%)" fill-opacity="1" d="M 156.121094 345.464844 L 144 338.46875 L 144 324.472656 L 156.121094 317.472656 L 168.242188 324.472656 L 168.242188 338.46875 Z M 156.121094 345.464844 "/>
<path fill-rule="evenodd" fill="rgb(95.686275%, 64.313725%, 37.647059%)" fill-opacity="1" d="M 156.121094 303.476562 L 144 296.480469 L 144 282.484375 L 156.121094 275.484375 L 168.242188 282.484375 L 168.242188 296.480469 Z M 156.121094 303.476562 "/>
<path fill-rule="evenodd" fill="rgb(95.686275%, 64.313725%, 37.647059%)" fill-opacity="1" d="M 156.121094 261.488281 L 144 254.488281 L 144 240.492188 L 156.121094 233.496094 L 168.242188 240.492188 L 168.242188 254.488281 Z M 156.121094 261.488281 "/>
<path fill-rule="evenodd" fill="rgb(95.686275%, 64.313725%, 37.647059%)" fill-opacity="1" d="M 156.121094 219.5 L 144 212.5 L 144 198.503906 L 156.121094 191.507812 L 168.242188 198.503906 L 168.242188 212.5 Z M 156.121094 219.5 "/>
<path fill-rule="evenodd" fill="rgb(95.686275%, 64.313725%, 37.647059%)" fill-opacity="1" d="M 156.121094 177.511719 L 144 170.511719 L 144 156.515625 L 156.121094 149.515625 L 168.242188 156.515625 L 168.242188 170.511719 Z M 156.121094 177.511719 "/>
<path fill-rule="evenodd" fill="rgb(95.686275%, 64.313725%, 37.647059%)" fill-opacity="1" d="M 168.242188 366.460938 L 156.121094 359.460938 L 156.121094 345.464844 L 168.242188 338.46875 L 180.363281 345.464844 L 180.363281 359.460938 Z M 168.242188 366.460938 "/>
<path fill-rule="evenodd" fill="rgb(95.686275%, 64.313725%, 37.647059%)" fill-opacity="1" d="M 168.242188 324.472656 L 156.121094 317.472656 L 156.121094 303.476562 L 168.242188 296.480469 L 180.363281 303.476562 L 180.363281 317.472656 Z M 168.242188 324.472656 "/>
<path fill-rule="evenodd" fill="rgb(95.686275%, 64.313725%, 37.647059%)" fill-opacity="1" d="M 168.242188 282.484375 L 156.121094 275.484375 L 156.121094 261.488281 L 168.242188 254.488281 L 180.363281 261.488281 L 180.363281 275.484375 Z M 168.242188 282.484375 "/>
<path fill-rule="evenodd" fill="rgb(95.686275%, 64.313725%, 37.647059%)" fill-opacity="1" d="M 168.242188 240.492188 L 156.121094 233.496094 L 156.121094 219.5 L 168.242188 212.5 L 180.363281 219.5 L 180.363281 233.496094 Z M 168.242188 240.492188 "/>
<path fill-rule="evenodd" fill="rgb(95.686275%, 64.313725%, 37.647059%)" fill-opacity="1" d="M 168.242188 198.503906 L 156.121094 191.507812 L 156.121094 177.511719 L 168.242188 170.511719 L 180.363281 177.511719 L 180.363281 191.507812 Z M 168.242188 198.503906 "/>
<path fill-rule="evenodd" fill="rgb(95.686275%, 64.313725%, 37.647059%)" fill-opacity="1" d="M 180.363281 387.457031 L 168.242188 380.457031 L 168.242188 366.460938 L 180.363281 359.460938 L 192.484375 366.460938 L 192.484375 380.457031 Z M 180.363281 387.457031 "/>
<path fill-rule="evenodd" fill="rgb(95.686275%, 64.313725%, 37.647059%)" fill-opacity="1" d="M 180.363281 345.464844 L 168.242188 338.46875 L 168.242188 324.472656 L 180.363281 317.472656 L 192.484375 324.472656 L 192.484375 338.46875 Z M 180.363281 345.464844 "/>
<path fill-rule="evenodd" fill="rgb(95.686275%, 64.313725%, 37.647059%)" fill-opacity="1" d="M 180.363281 303.476562 L 168.242188 296.480469 L 168.242188 282.484375 L 180.363281 275.484375 L 192.484375 282.484375 L 192.484375 296.480469 Z M 180.363281 303.476562 "/>
<path fill-rule="evenodd" fill="rgb(95.686275%, 64.313725%, 37.647059%)" fill-opacity="1" d="M 180.363281 261.488281 L 168.242188 254.488281 L 168.242188 240.492188 L 180.363281 233.496094 L 192.484375 240.492188 L 192.484375 254.488281 Z M 180.363281 261.488281 "/>
<path fill-rule="evenodd" fill="rgb(95.686275%, 64.313725%, 37.647059%)" fill-opacity="1" d="M 180.363281 219.5 L 168.242188 212.5 L 168.242188 198.503906 L 180.363281 191.507812 L 192.484375 198.503906 L 192.484375 212.5 Z M 180.363281 219.5 "/>
<path fill-rule="evenodd" fill="rgb(95.686275%, 64.313725%, 37.647059%)" fill-opacity="1" d="M 192.484375 366.460938 L 180.363281 359.460938 L 180.363281 345.464844 L 192.484375 338.46875 L 204.605469 345.464844 L 204.605469 359.460938 Z M 192.484375 366.460938 "/>
<path fill-rule="evenodd" fill="rgb(95.686275%, 64.313725%, 37.647059%)" fill-opacity="1" d="M 192.484375 324.472656 L 180.363281 317.472656 L 180.363281 303.476562 L 192.484375 296.480469 L 204.605469 303.476562 L 204.605469 317.472656 Z M 192.484375 324.472656 "/>
<path fill-rule="evenodd" fill="rgb(95.686275%, 64.313725%, 37.647059%)" fill-opacity="1" d="M 192.484375 282.484375 L 180.363281 275.484375 L 180.363281 261.488281 L 192.484375 254.488281 L 204.605469 261.488281 L 204.605469 275.484375 Z M 192.484375 282.484375 "/>
<path fill-rule="evenodd" fill="rgb(95.686275%, 64.313725%, 37.647059%)" fill-opacity="1" d="M 192.484375 240.492188 L 180.363281 233.496094 L 180.363281 219.5 L 192.484375 212.5 L 204.605469 219.5 L 204.605469 233.496094 Z M 192.484375 240.492188 "/>
<path fill-rule="evenodd" fill="rgb(95.686275%, 64.313725%, 37.647059%)" fill-opacity="1" d="M 204.605469 387.457031 L 192.484375 380.457031 L 192.484375 366.460938 L 204.605469 359.460938 L 216.726562 366.460938 L 216.726562 380.457031 Z M 204.605469 387.457031 "/>
<path fill-rule="evenodd" fill="rgb(95.686275%, 64.313725%, 37.647059%)" fill-opacity="1" d="M 204.605469 345.464844 L 192.484375 338.46875 L 192.484375 324.472656 L 204.605469 317.472656 L 216.726562 324.472656 L 216.726562 338.46875 Z M 204.605469 345.464844 "/>
<path fill-rule="evenodd" fill="rgb(95.686275%, 64.313725%, 37.647059%)" fill-opacity="1" d="M 204.605469 303.476562 L 192.484375 296.480469 L 192.484375 282.484375 L 204.605469 275.484375 L 216.726562 282.484375 L 216.726562 296.480469 Z M 204.605469 303.476562 "/>
<path fill-rule="evenodd" fill="rgb(95.686275%, 64.313725%, 37.647059%)" fill-opacity="1" d="M 204.605469 261.488281 L 192.484375 254.488281 L 192.484375 240.492188 L 204.605469 233.496094 L 216.726562 240.492188 L 216.726562 254.488281 Z M 204.605469 261.488281 "/>
<path fill-rule="evenodd" fill="rgb(95.686275%, 64.313725%, 37.647059%)" fill-opacity="1" d="M 204.605469 219.5 L 192.484375 212.5 L 192.484375 198.503906 L 204.605469 191.507812 L 216.726562 198.503906 L 216.726562 212.5 Z M 204.605469 219.5 "/>
<path fill-rule="evenodd" fill="rgb(95.686275%, 64.313725%, 37.647059%)" fill-opacity="1" d="M 216.726562 408.449219 L 204.605469 401.453125 L 204.605469 387.457031 L 216.726562 380.457031 L 228.847656 387.457031 L 228.847656 401.453125 Z M 216.726562 408.449219 "/>
<path fill-rule="evenodd" fill="rgb(95.686275%, 64.313725%, 37.647059%)" fill-opacity="1" d="M 216.726562 366.460938 L 204.605469 359.460938 L 204.605469 345.464844 L 216.726562 338.46875 L 228.847656 345.464844 L 228.847656 359.460938 Z M 216.726562 366.460938 "/>
<path fill-rule="evenodd" fill="rgb(95.686275%, 64.313725%, 37.647059%)" fill-opacity="1" d="M 216.726562 324.472656 L 204.605469 317.472656 L 204.605469 303.476562 L 216.726562 296.480469 L 228.847656 303.476562 L 228.847656 317.472656 Z M 216.726562 324.472656 "/>
<path fill-rule="evenodd" fill="rgb(95.686275%, 64.313725%, 37.647059%)" fill-opacity="1" d="M 216.726562 282.484375 L 204.605469 275.484375 L 204.605469 261.488281 L 216.726562 254.488281 L 228.847656 261.488281 L 228.847656 275.484375 Z M 216.726562 282.484375 "/>
<path fill-rule="evenodd" fill="rgb(95.686275%, 64.313725%, 37.647059%)" fill-opacity="1" d="M 216.726562 240.492188 L 204.605469 233.496094 L 204.605469 219.5 L 216.726562 212.5 L 228.847656 219.5 L 228.847656 233.496094 Z M 216.726562 240.492188 "/>
<path fill-rule="evenodd" fill="rgb(95.686275%, 64.313725%, 37.647059%)" fill-opacity="1" d="M 228.847656 345.464844 L 216.726562 338.46875 L 216.726562 324.472656 L 228.847656 317.472656 L 240.96875 324.472656 L 240.96875 338.46875 Z M 228.847656 345.464844 "/>
<path fill-rule="evenodd" fill="rgb(95.686275%, 64.313725%, 37.647059%)" fill-opacity="1" d="M 228.847656 303.476562 L 216.726562 296.480469 L 216.726562 282.484375 L 228.847656 275.484375 L 240.96875 282.484375 L 240.96875 296.480469 Z M 228.847656 303.476562 "/>
<path fill-rule="evenodd" fill="rgb(95.686275%, 64.313725%, 37.647059%)" fill-opacity="1" d="M 228.847656 261.488281 L 216.726562 254.488281 L 216.726562 240.492188 L 228.847656 233.496094 L 240.96875 240.492188 L 240.96875 254.488281 Z M 228.847656 261.488281 "/>
<path fill-rule="evenodd" fill="rgb(95.686275%, 64.313725%, 37.647059%)" fill-opacity="1" d="M 240.96875 324.472656 L 228.847656 317.472656 L 228.847656 303.476562 L 240.96875 296.480469 L 253.089844 303.476562 L 253.089844 317.472656 Z M 240.96875 324.472656 "/>
<path fill-rule="evenodd" fill="rgb(95.686275%, 64.313725%, 37.647059%)" fill-opacity="1" d="M 240.96875 282.484375 L 228.847656 275.484375 L 228.847656 261.488281 L 240.96875 254.488281 L 253.089844 261.488281 L 253.089844 275.484375 Z M 240.96875 282.484375 "/>
<path fill-rule="evenodd" fill="rgb(95.686275%, 64.313725%, 37.647059%)" fill-opacity="1" d="M 240.96875 240.492188 L 228.847656 233.496094 L 228.847656 219.5 L 240.96875 212.5 L 253.089844 219.5 L 253.089844 233.496094 Z M 240.96875 240.492188 "/>
<path fill-rule="evenodd" fill="rgb(95.686275%, 64.313725%, 37.647059%)" fill-opacity="1" d="M 253.089844 303.476562 L 240.96875 296.480469 L 240.96875 282.484375 L 253.089844 275.484375 L 265.210938 282.484375 L 265.210938 296.480469 Z M 253.089844 303.476562 "/>
<path fill-rule="evenodd" fill="rgb(95.686275%, 64.313725%, 37.647059%)" fill-opacity="1" d="M 253.089844 261.488281 L 240.96875 254.488281 L 240.96875 240.492188 L 253.089844 233.496094 L 265.210938 240.492188 L 265.210938 254.488281 Z M 253.089844 261.488281 "/>
<path fill-rule="evenodd" fill="rgb(95.686275%, 64.313725%, 37.647059%)" fill-opacity="1" d="M 265.210938 282.484375 L 253.089844 275.484375 L 253.089844 261.488281 L 265.210938 254.488281 L 277.332031 261.488281 L 277.332031 275.484375 Z M 265.210938 282.484375 "/>
<path fill-rule="evenodd" fill="rgb(95.686275%, 64.313725%, 37.647059%)" fill-opacity="1" d="M 265.210938 240.492188 L 253.089844 233.496094 L 253.089844 219.5 L 265.210938 212.5 L 277.332031 219.5 L 277.332031 233.496094 Z M 265.210938 240.492188 "/>
<path fill-rule="evenodd" fill="rgb(13.333333%, 54.509804%, 13.333333%)" fill-opacity="1" d="M 34.910156 219.5 L 22.789062 212.5 L 22.789062 198.503906 L 34.910156 191.507812 L 47.03125 198.503906 L 47.03125 212.5 Z M 34.910156 219.5 "/>
<path fill-rule="evenodd" fill="rgb(13.333333%, 54.509804%, 13.333333%)" fill-opacity="1" d="M 34.910156 177.511719 L 22.789062 170.511719 L 22.789062 156.515625 L 34.910156 149.515625 L 47.03125 156.515625 L 47.03125 170.511719 Z M 34.910156 177.511719 "/>
<path fill-rule="evenodd" fill="rgb(13.333333%, 54.509804%, 13.333333%)" fill-opacity="1" d="M 47.03125 198.503906 L 34.910156 191.507812 L 34.910156 177.511719 L 47.03125 170.511719 L 59.152344 177.511719 L 59.152344 191.507812 Z M 47.03125 198.503906 "/>
<path fill-rule="evenodd" fill="rgb(13.333333%, 54.509804%, 13.333333%)" fill-opacity="1" d="M 83.394531 219.5 L 71.273438 212.5 L 71.273438 198.503906 L 83.394531 191.507812 L 95.515625 198.503906 L 95.515625 212.5 Z M 83.394531 219.5 "/>
<path fill-rule="evenodd" fill="rgb(13.333333%, 54.509804%, 13.333333%)" fill-opacity="1" d="M 83.394531 177.511719 L 71.273438 170.511719 L 71.273438 156.515625 L 83.394531 149.515625 L 95.515625 156.515625 L 95.515625 170.511719 Z M 83.394531 177.511719 "/>
<path fill-rule="evenodd" fill="rgb(13.333333%, 54.509804%, 13.333333%)" fill-opacity="1" d="M 83.394531 135.519531 L 71.273438 128.523438 L 71.273438 114.527344 L 83.394531 107.527344 L 95.515625 114.527344 L 95.515625 128.523438 Z M 83.394531 135.519531 "/>
<path fill-rule="evenodd" fill="rgb(13.333333%, 54.509804%, 13.333333%)" fill-opacity="1" d="M 95.515625 408.449219 L 83.394531 401.453125 L 83.394531 387.457031 L 95.515625 380.457031 L 107.636719 387.457031 L 107.636719 401.453125 Z M 95.515625 408.449219 "/>
<path fill-rule="evenodd" fill="rgb(13.333333%, 54.509804%, 13.333333%)" fill-opacity="1" d="M 95.515625 114.527344 L 83.394531 107.527344 L 83.394531 93.53125 L 95.515625 86.535156 L 107.636719 93.53125 L 107.636719 107.527344 Z M 95.515625 114.527344 "/>
<path fill-rule="evenodd" fill="rgb(13.333333%, 54.509804%, 13.333333%)" fill-opacity="1" d="M 95.515625 72.539062 L 83.394531 65.539062 L 83.394531 51.542969 L 95.515625 44.542969 L 107.636719 51.542969 L 107.636719 65.539062 Z M 95.515625 72.539062 "/>
<path fill-rule="evenodd" fill="rgb(13.333333%, 54.509804%, 13.333333%)" fill-opacity="1" d="M 107.636719 303.476562 L 95.515625 296.480469 L 95.515625 282.484375 L 107.636719 275.484375 L 119.757812 282.484375 L 119.757812 296.480469 Z M 107.636719 303.476562 "/>
<path fill-rule="evenodd" fill="rgb(13.333333%, 54.509804%, 13.333333%)" fill-opacity="1" d="M 107.636719 261.488281 L 95.515625 254.488281 L 95.515625 240.492188 L 107.636719 233.496094 L 119.757812 240.492188 L 119.757812 254.488281 Z M 107.636719 261.488281 "/>
<path fill-rule="evenodd" fill="rgb(13.333333%, 54.509804%, 13.333333%)" fill-opacity="1" d="M 107.636719 93.53125 L 95.515625 86.535156 L 95.515625 72.539062 L 107.636719 65.539062 L 119.757812 72.539062 L 119.757812 86.535156 Z M 107.636719 93.53125 "/>
<path fill-rule="evenodd" fill="rgb(13.333333%, 54.509804%, 13.333333%)" fill-opacity="1" d="M 119.757812 324.472656 L 107.636719 317.472656 L 107.636719 303.476562 L 119.757812 296.480469 L 131.878906 303.476562 L 131.878906 317.472656 Z M 119.757812 324.472656 "/>
<path fill-rule="evenodd" fill="rgb(13.333333%, 54.509804%, 13.333333%)" fill-opacity="1" d="M 119.757812 282.484375 L 107.636719 275.484375 L 107.636719 261.488281 L 119.757812 254.488281 L 131.878906 261.488281 L 131.878906 275.484375 Z M 119.757812 282.484375 "/>
<path fill-rule="evenodd" fill="rgb(13.333333%, 54.509804%, 13.333333%)" fill-opacity="1" d="M 119.757812 240.492188 L 107.636719 233.496094 L 107.636719 219.5 L 119.757812 212.5 L 131.878906 219.5 L 131.878906 233.496094 Z M 119.757812 240.492188 "/>
<path fill-rule="evenodd" fill="rgb(13.333333%, 54.509804%, 13.333333%)" fill-opacity="1" d="M 119.757812 198.503906 L 107.636719 191.507812 L 107.636719 177.511719 L 119.757812 170.511719 L 131.878906 177.511719 L 131.878906 191.507812 Z M 119.757812 198.503906 "/>
<path fill-rule="evenodd" fill="rgb(13.333333%, 54.509804%, 13.333333%)" fill-opacity="1" d="M 131.878906 303.476562 L 119.757812 296.480469 L 119.757812 282.484375 L 131.878906 275.484375 L 144 282.484375 L 144 296.480469 Z M 131.878906 303.476562 "/>
<path fill-rule="evenodd" fill="rgb(13.333333%, 54.509804%, 13.333333%)" fill-opacity="1" d="M 131.878906 177.511719 L 119.757812 170.511719 L 119.757812 156.515625 L 131.878906 149.515625 L 144 156.515625 L 144 170.511719 Z M 131.878906 177.511719 "/>
<path fill-rule="evenodd" fill="rgb(13.333333%, 54.509804%, 13.333333%)" fill-opacity="1" d="M 144 366.460938 L 131.878906 359.460938 L 131.878906 345.464844 L 144 338.46875 L 156.121094 345.464844 L 156.121094 359.460938 Z M 144 366.460938 "/>
<path fill-rule="evenodd" fill="rgb(13.333333%, 54.509804%, 13.333333%)" fill-opacity="1" d="M 144 198.503906 L 131.878906 191.507812 L 131.878906 177.511719 L 144 170.511719 L 156.121094 177.511719 L 156.121094 191.507812 Z M 144 198.503906 "/>
<path fill-rule="evenodd" fill="rgb(13.333333%, 54.509804%, 13.333333%)" fill-opacity="1" d="M 144 156.515625 L 131.878906 149.515625 L 131.878906 135.519531 L 144 128.523438 L 156.121094 135.519531 L 156.121094 149.515625 Z M 144 156.515625 "/>
<path fill-rule="evenodd" fill="rgb(13.333333%, 54.509804%, 13.333333%)" fill-opacity="1" d="M 156.121094 303.476562 L 144 296.480469 L 144 282.484375 L 156.121094 275.484375 L 168.242188 282.484375 L 168.242188 296.480469 Z M 156.121094 303.476562 "/>
<path fill-rule="evenodd" fill="rgb(13.333333%, 54.509804%, 13.333333%)" fill-opacity="1" d="M 156.121094 219.5 L 144 212.5 L 144 198.503906 L 156.121094 191.507812 L 168.242188 198.503906 L 168.242188 212.5 Z M 156.121094 219.5 "/>
<path fill-rule="evenodd" fill="rgb(13.333333%, 54.509804%, 13.333333%)" fill-opacity="1" d="M 156.121094 177.511719 L 144 170.511719 L 144 156.515625 L 156.121094 149.515625 L 168.242188 156.515625 L 168.242188 170.511719 Z M 156.121094 177.511719 "/>
<path fill-rule="evenodd" fill="rgb(13.333333%, 54.509804%, 13.333333%)" fill-opacity="1" d="M 168.242188 324.472656 L 156.121094 317.472656 L 156.121094 303.476562 L 168.242188 296.480469 L 180.363281 303.476562 L 180.363281 317.472656 Z M 168.242188 324.472656 "/>
<path fill-rule="evenodd" fill="rgb(13.333333%, 54.509804%, 13.333333%)" fill-opacity="1" d="M 180.363281 219.5 L 168.242188 212.5 L 168.242188 198.503906 L 180.363281 191.507812 L 192.484375 198.503906 L 192.484375 212.5 Z M 180.363281 219.5 "/>
<path fill-rule="evenodd" fill="rgb(13.333333%, 54.509804%, 13.333333%)" fill-opacity="1" d="M 192.484375 240.492188 L 180.363281 233.496094 L 180.363281 219.5 L 192.484375 212.5 L 204.605469 219.5 L 204.605469 233.496094 Z M 192.484375 240.492188 "/>
<path fill-rule="evenodd" fill="rgb(13.333333%, 54.509804%, 13.333333%)" fill-opacity="1" d="M 204.605469 219.5 L 192.484375 212.5 L 192.484375 198.503906 L 204.605469 191.507812 L 216.726562 198.503906 L 216.726562 212.5 Z M 204.605469 219.5 "/>
<path fill-rule="evenodd" fill="rgb(13.333333%, 54.509804%, 13.333333%)" fill-opacity="1" d="M 216.726562 324.472656 L 204.605469 317.472656 L 204.605469 303.476562 L 216.726562 296.480469 L 228.847656 303.476562 L 228.847656 317.472656 Z M 216.726562 324.472656 "/>
<path fill-rule="evenodd" fill="rgb(13.333333%, 54.509804%, 13.333333%)" fill-opacity="1" d="M 228.847656 345.464844 L 216.726562 338.46875 L 216.726562 324.472656 L 228.847656 317.472656 L 240.96875 324.472656 L 240.96875 338.46875 Z M 228.847656 345.464844 "/>
<path fill-rule="evenodd" fill="rgb(13.333333%, 54.509804%, 13.333333%)" fill-opacity="1" d="M 228.847656 261.488281 L 216.726562 254.488281 L 216.726562 240.492188 L 228.847656 233.496094 L 240.96875 240.492188 L 240.96875 254.488281 Z M 228.847656 261.488281 "/>
<path fill-rule="evenodd" fill="rgb(13.333333%, 54.509804%, 13.333333%)" fill-opacity="1" d="M 265.210938 240.492188 L 253.089844 233.496094 L 253.089844 219.5 L 265.210938 212.5 L 277.332031 219.5 L 277.332031 233.496094 Z M 265.210938 240.492188 "/>
<path fill-rule="evenodd" fill="rgb(54.509804%, 0%, 0%)" fill-opacity="1" d="M 47.03125 282.484375 L 34.910156 275.484375 L 34.910156 261.488281 L 47.03125 254.488281 L 59.152344 261.488281 L 59.152344 275.484375 Z M 47.03125 282.484375 "/>
<path fill-rule="evenodd" fill="rgb(54.509804%, 0%, 0%)" fill-opacity="1" d="M 71.273438 366.460938 L 59.152344 359.460938 L 59.152344 345.464844 L 71.273438 338.46875 L 83.394531 345.464844 L 83.394531 359.460938 Z M 71.273438 366.460938 "/>
<path fill-rule="evenodd" fill="rgb(54.509804%, 0%, 0%)" fill-opacity="1" d="M 83.394531 387.457031 L 71.273438 380.457031 L 71.273438 366.460938 L 83.394531 359.460938 L 95.515625 366.460938 L 95.515625 380.457031 Z M 83.394531 387.457031 "/>
<path fill-rule="evenodd" fill="rgb(54.509804%, 0%, 0%)" fill-opacity="1" d="M 107.636719 51.542969 L 95.515625 44.542969 L 95.515625 30.546875 L 107.636719 23.550781 L 119.757812 30.546875 L 119.757812 44.542969 Z M 107.636719 51.542969 "/>
<path fill-rule="evenodd" fill="rgb(54.509804%, 0%, 0%)" fill-opacity="1" d="M 119.757812 156.515625 L 107.636719 149.515625 L 107.636719 135.519531 L 119.757812 128.523438 L 131.878906 135.519531 L 131.878906 149.515625 Z M 119.757812 156.515625 "/>
<path fill-rule="evenodd" fill="rgb(54.509804%, 0%, 0%)" fill-opacity="1" d="M 119.757812 114.527344 L 107.636719 107.527344 L 107.636719 93.53125 L 119.757812 86.535156 L 131.878906 93.53125 L 131.878906 107.527344 Z M 119.757812 114.527344 "/>
<path fill-rule="evenodd" fill="rgb(54.509804%, 0%, 0%)" fill-opacity="1" d="M 131.878906 345.464844 L 119.757812 338.46875 L 119.757812 324.472656 L 131.878906 317.472656 L 144 324.472656 L 144 338.46875 Z M 131.878906 345.464844 "/>
<path fill-rule="evenodd" fill="rgb(54.509804%, 0%, 0%)" fill-opacity="1" d="M 131.878906 219.5 L 119.757812 212.5 L 119.757812 198.503906 L 131.878906 191.507812 L 144 198.503906 L 144 212.5 Z M 131.878906 219.5 "/>
<path fill-rule="evenodd" fill="rgb(54.509804%, 0%, 0%)" fill-opacity="1" d="M 144 324.472656 L 131.878906 317.472656 L 131.878906 303.476562 L 144 296.480469 L 156.121094 303.476562 L 156.121094 317.472656 Z M 144 324.472656 "/>
<path fill-rule="evenodd" fill="rgb(54.509804%, 0%, 0%)" fill-opacity="1" d="M 156.121094 345.464844 L 144 338.46875 L 144 324.472656 L 156.121094 317.472656 L 168.242188 324.472656 L 168.242188 338.46875 Z M 156.121094 345.464844 "/>
<path fill-rule="evenodd" fill="rgb(54.509804%, 0%, 0%)" fill-opacity="1" d="M 180.363281 261.488281 L 168.242188 254.488281 L 168.242188 240.492188 L 180.363281 233.496094 L 192.484375 240.492188 L 192.484375 254.488281 Z M 180.363281 261.488281 "/>
<path fill-rule="evenodd" fill="rgb(54.509804%, 0%, 0%)" fill-opacity="1" d="M 240.96875 240.492188 L 228.847656 233.496094 L 228.847656 219.5 L 240.96875 212.5 L 253.089844 219.5 L 253.089844 233.496094 Z M 240.96875 240.492188 "/>
</svg>
