<?xml version="1.0" encoding="UTF-8" standalone="no"?>
<svg
   width="208mm"
   height="180mm"
   viewBox="0 0 208 180"
   version="1.1"
   id="svg1"
   sodipodi:docname="0.svg"
   inkscape:version="1.3 (1:1.3+202307231459+0e150ed6c4)"
   xmlns:inkscape="http://www.inkscape.org/namespaces/inkscape"
   xmlns:sodipodi="http://sodipodi.sourceforge.net/DTD/sodipodi-0.dtd"
   xmlns="http://www.w3.org/2000/svg"
   xmlns:svg="http://www.w3.org/2000/svg">
  <defs
     id="defs1">
    <filter
       inkscape:collect="always"
       style="color-interpolation-filters:sRGB"
       id="filter6"
       x="-0.14216611"
       y="-0.11197757"
       width="1.2843322"
       height="1.2239551">
      <feGaussianBlur
         inkscape:collect="always"
         stdDeviation="0.74383917"
         id="feGaussianBlur6" />
    </filter>
    <filter
       inkscape:collect="always"
       style="color-interpolation-filters:sRGB"
       id="filter7"
       x="-0.086469547"
       y="-0.076123839"
       width="1.1729391"
       height="1.1522477">
      <feGaussianBlur
         inkscape:collect="always"
         stdDeviation="0.9550154"
         id="feGaussianBlur7" />
    </filter>
    <filter
       inkscape:collect="always"
       style="color-interpolation-filters:sRGB"
       id="filter8"
       x="-0.22189716"
       y="-0.25198503"
       width="1.4437943"
       height="1.5039701">
      <feGaussianBlur
         inkscape:collect="always"
         stdDeviation="5.245434"
         id="feGaussianBlur8" />
    </filter>
  </defs>
  <sodipodi:namedview
     id="namedview1"
     pagecolor="#ffffff"
     bordercolor="#666666"
     borderopacity="1.0"
     inkscape:showpageshadow="2"
     inkscape:pageopacity="0.0"
     inkscape:pagecheckerboard="0"
     inkscape:deskcolor="#d1d1d1"
     inkscape:document-units="mm"
     inkscape:zoom="1.3761811"
     inkscape:cx="402.92663"
     inkscape:cy="307.73567"
     inkscape:window-width="1920"
     inkscape:window-height="1043"
     inkscape:window-x="0"
     inkscape:window-y="0"
     inkscape:window-maximized="1"
     inkscape:current-layer="svg1" />
  <g
     id="g1"
     style="fill:#4f5f28;fill-opacity:1">
    <path
       style="fill:#4f5f28;fill-opacity:1;stroke:none;stroke-width:1;stroke-linejoin:bevel;stroke-miterlimit:10"
       d="M 155.96152,59.999999 V 119.99999 L 103.99999,150 52.038459,119.99999 V 59.999993 L 103.99999,29.999996 Z"
       id="n2"
       sodipodi:nodetypes="ccccccc" />
  </g>
  <path
     style="fill:none;stroke:#000000;stroke-width:1;stroke-linecap:round;stroke-linejoin:round;stroke-dasharray:none;stroke-opacity:1"
     d="m 64.316543,110.5993 c 2.522998,-2.09338 5.074672,-12.999994 5.074672,-12.999994 0,0 4.599921,12.011194 6.205272,13.315974"
     id="path1"
     sodipodi:nodetypes="ccc" />
  <path
     style="fill:none;stroke:#000000;stroke-width:1;stroke-linecap:round;stroke-linejoin:round;stroke-dasharray:none;stroke-opacity:1"
     d="m 68.105024,68.784763 c 2.942061,-3.118804 2.752876,-4.650094 3.137948,-5.880801 0.353109,-1.128551 0.497591,-1.145466 0.497591,-1.145466 0,0 2.196534,6.222264 3.93936,7.686886"
     id="path2"
     sodipodi:nodetypes="cscc" />
  <path
     style="fill:none;stroke:#000000;stroke-width:1;stroke-linecap:round;stroke-linejoin:round;stroke-dasharray:none;stroke-opacity:1"
     d="m 120.22132,67.62481 c 2.53693,-3.579673 3.58072,-6.470783 3.57713,-7.684615 -0.003,-1.172012 0.78966,8.365257 3.76458,9.606465"
     id="path3"
     sodipodi:nodetypes="csc" />
  <path
     style="fill:none;stroke:#000000;stroke-width:1;stroke-linecap:round;stroke-linejoin:round;stroke-dasharray:none;stroke-opacity:1"
     d="m 131.3685,84.862703 c 4.23748,-6.170428 5.38003,-10.288481 5.38003,-10.288481 0,0 3.44064,10.823244 4.34183,11.86144"
     id="path4"
     sodipodi:nodetypes="ccc" />
  <path
     style="fill:none;stroke:#000000;stroke-width:1;stroke-linecap:round;stroke-linejoin:round;stroke-dasharray:none;stroke-opacity:1"
     d="m 129.46046,116.23211 c 2.65629,-2.9489 4.82349,-12.29159 4.82349,-12.29159 0,0 3.22391,12.16838 5.06511,13.48803"
     id="path5"
     sodipodi:nodetypes="ccc" />
  <path
     style="fill:#e78509;stroke:none;stroke-width:0.264583px;stroke-linecap:butt;stroke-linejoin:miter;stroke-opacity:1;fill-opacity:1;filter:url(#filter7)"
     d="m 94.912158,86.935661 c 0.766783,3.064335 -3.814726,6.019443 3.288889,11.823596 7.103613,5.804153 11.902583,4.964863 12.692643,2.482433 0.79007,-2.482433 -0.22222,-10.126472 0.71272,-11.241691 0.93494,-1.115222 5.1632,-0.997257 5.1632,-0.997257 0,0 6.5278,1.946325 1.51029,-4.604004 -5.01751,-6.550327 -8.58031,-10.324391 -10.82434,-10.324391 -2.24402,0 -12.776217,-2.967953 -13.589562,1.101963 -0.813345,4.069916 1.164069,8.695015 1.04616,11.759351 z"
     id="path7" />
  <path
     style="fill:#fefb20;stroke:none;stroke-width:0.264583px;stroke-linecap:butt;stroke-linejoin:miter;stroke-opacity:1;fill-opacity:1;filter:url(#filter6)"
     d="m 103.99999,89.999996 c 3.64182,3.099218 -2.39857,10.332004 2.60393,5.166003 5.00249,-5.166 5.00249,-5.166 5.00249,-5.166 0,0 2.74494,-0.7347 -1.16107,-4.410155 -3.90601,-3.675454 -2.21081,-2.650582 -4.32808,-3.867713 -2.11727,-1.217128 -6.428667,-1.006359 -6.11474,2.103586 0.31392,3.109944 3.99747,6.174279 3.99747,6.174279 z"
     id="path6" />
  <path
     style="fill:#000000;stroke:none;stroke-width:0.264583px;stroke-linecap:butt;stroke-linejoin:miter;stroke-opacity:1;filter:url(#filter8)"
     d="m 107.45556,74.074347 c 9.61746,-12.815848 12.26576,-14.042194 16.43661,-26.507495 4.17086,-12.465299 8.71763,-15.103602 12.33726,-14.716831 3.61963,0.38677 16.29061,-4.921383 20.89206,2.773486 4.60145,7.69487 10.44399,14.596531 4.64201,19.486512 -5.80198,4.889979 -0.61106,-0.288374 -12.81302,9.587916 -12.20195,9.876287 -14.99245,11.913335 -22.83152,15.807068 -7.83906,3.893735 -18.6634,-6.430656 -18.6634,-6.430656"
     id="path8" />
</svg>
