<?xml version="1.0" encoding="UTF-8" standalone="no"?>
<svg
   width="208mm"
   height="180mm"
   viewBox="0 0 208 180"
   version="1.1"
   id="svg6"
   sodipodi:docname="63.svg"
   inkscape:version="1.3 (1:1.3+202307231459+0e150ed6c4)"
   xmlns:inkscape="http://www.inkscape.org/namespaces/inkscape"
   xmlns:sodipodi="http://sodipodi.sourceforge.net/DTD/sodipodi-0.dtd"
   xmlns="http://www.w3.org/2000/svg"
   xmlns:svg="http://www.w3.org/2000/svg">
  <defs
     id="defs6">
    <filter
       inkscape:collect="always"
       style="color-interpolation-filters:sRGB"
       id="filter7"
       x="-0.17343211"
       y="-0.27387858"
       width="1.3468642"
       height="1.5477572">
      <feGaussianBlur
         inkscape:collect="always"
         stdDeviation="4.8162379"
         id="feGaussianBlur7" />
    </filter>
  </defs>
  <sodipodi:namedview
     id="namedview6"
     pagecolor="#ffffff"
     bordercolor="#666666"
     borderopacity="1.0"
     inkscape:showpageshadow="2"
     inkscape:pageopacity="0.0"
     inkscape:pagecheckerboard="0"
     inkscape:deskcolor="#d1d1d1"
     inkscape:document-units="mm"
     inkscape:zoom="0.90696114"
     inkscape:cx="393.07087"
     inkscape:cy="428.35352"
     inkscape:window-width="1920"
     inkscape:window-height="1043"
     inkscape:window-x="0"
     inkscape:window-y="0"
     inkscape:window-maximized="1"
     inkscape:current-layer="svg6" />
  <path
     style="fill:#af4300;stroke:none;stroke-width:5;stroke-linejoin:bevel;stroke-miterlimit:10;fill-opacity:1"
     d="M 155.96152,120 104,150 52.038459,120 V 60 L 104,30 155.96153,60 Z"
     id="path4"
     sodipodi:nodetypes="ccccccc" />
  <path
     style="fill:#fc7231;stroke:none;stroke-width:0.264583px;stroke-linecap:butt;stroke-linejoin:miter;stroke-opacity:1;fill-opacity:1;filter:url(#filter7)"
     d="m 86.187673,86.14893 c 3.394723,10.128329 -3.843705,21.08056 8.425841,25.67295 12.269546,4.59239 12.484926,4.59239 12.484926,4.59239 0,0 3.98957,-11.92654 14.28313,-5.37526 10.29357,6.55128 19.95354,9.27822 23.78357,5.70459 3.83004,-3.57363 7.15981,-16.70468 4.61405,-17.072755 -2.54576,-0.368075 -4.28699,-1.062064 -4.28699,-1.062064 0,0 -7.64297,-9.011571 -15.50702,-10.563638 -7.86404,-1.552069 -15.77252,14.311097 -20.87885,8.132977 -5.10634,-6.178121 -23.801807,-20.057242 -23.801807,-20.057242 0,0 -3.403841,7.926718 0.88315,10.028052 z"
     id="path7" />
</svg>
