<?xml version="1.0" encoding="UTF-8" standalone="no"?>
<svg
   height="209.973mm"
   width="296.926mm"
   version="1.2"
   viewBox="0 0 3507 2480"
   id="svg7142"
   sodipodi:docname="qgis_raw_export_bup.svg"
   inkscape:version="1.2.2 (b0a8486541, 2022-12-01)"
   xmlns:inkscape="http://www.inkscape.org/namespaces/inkscape"
   xmlns:sodipodi="http://sodipodi.sourceforge.net/DTD/sodipodi-0.dtd"
   xmlns="http://www.w3.org/2000/svg"
   xmlns:svg="http://www.w3.org/2000/svg"
   xmlns:rdf="http://www.w3.org/1999/02/22-rdf-syntax-ns#"
   xmlns:cc="http://creativecommons.org/ns#"
   xmlns:dc="http://purl.org/dc/elements/1.1/">
  <sodipodi:namedview
     id="namedview7144"
     pagecolor="#ffffff"
     bordercolor="#000000"
     borderopacity="0.25"
     inkscape:showpageshadow="2"
     inkscape:pageopacity="0.0"
     inkscape:pagecheckerboard="0"
     inkscape:deskcolor="#d1d1d1"
     inkscape:document-units="mm"
     showgrid="false"
     inkscape:zoom="0.79057575"
     inkscape:cx="665.97034"
     inkscape:cy="354.80471"
     inkscape:window-width="1920"
     inkscape:window-height="1016"
     inkscape:window-x="0"
     inkscape:window-y="0"
     inkscape:window-maximized="1"
     inkscape:current-layer="layer2" />
  <title
     id="title2">Qt SVG Document</title>
  <desc
     id="desc4">Generated with Qt</desc>
  <defs
     id="defs6" />
  <metadata
     id="metadata16459">
    <rdf:RDF>
      <cc:Work
         rdf:about="">
        <dc:title>Qt SVG Document</dc:title>
      </cc:Work>
    </rdf:RDF>
  </metadata>
  <g
     inkscape:groupmode="layer"
     id="layer2"
     inkscape:label="Layer 2">
    <path
       vector-effect="none"
       fill-rule="nonzero"
       d="m 1353.8877,1905.443 40.4745,-23.3643 -0.2404,-47.1457 40.9504,-23.3693 -0.2404,-47.1507 41.1907,-23.7815 40.7152,23.7815 40.4745,-23.3643 v -46.7335 l -40.9504,-23.3693 v -47.5629 l 41.1907,-23.7815 41.1911,23.7815 -0.2405,47.1507 40.4696,23.3693 40.4745,-23.3693 -0.2354,-47.1507 40.9503,-23.3693 -0.2403,-47.1507 40.9504,-23.3643 v -46.7335 l -40.9504,-23.3693 0.2403,-47.1457 -40.4744,-23.3643 -40.7152,23.7815 -40.7098,-23.7815 -40.7102,23.7815 -40.7148,-23.7815 -40.4746,23.3643 0.2405,47.1457 -41.1911,23.7815 -41.1907,-23.7815 0.2404,-47.1457 -40.4745,-23.3643 -40.4746,23.3643 v 46.7335 l 40.9505,23.3693 -0.2355,47.1457 40.9555,23.3643 v 47.5629 l -41.1911,23.7815 -41.1907,-23.7815 0.2354,-47.1457 -40.4745,-23.3643 -40.7102,23.7815 -40.7148,-23.7815 -40.4746,23.3643 v 46.7335 l 40.9505,23.3693 v 47.5629 l -40.9505,23.3693 v 46.7335 l 40.9505,23.3643 -0.2356,47.1507 40.4747,23.3693 40.7098,-23.7815 41.1911,23.7815 -0.2405,47.1457 z"
       id="path1014"
       style="font-style:normal;font-weight:400;font-size:45.8333px;font-family:Ubuntu;fill:none;stroke:#ff0000;stroke-width:11.811;stroke-linecap:square;stroke-linejoin:bevel;stroke-dasharray:none"
       sodipodi:nodetypes="ccccccccccccccccccccccccccccccccccccccccccccccccccccccccccc" />
    <path
       vector-effect="none"
       fill-rule="nonzero"
       d="m 1231.7527,1882.4959 -40.4747,23.3643 v 46.7335 l 40.4747,23.3693 40.4695,-23.3693 v -46.7335 z"
       id="path1378"
       style="font-style:normal;font-weight:400;font-size:45.8333px;font-family:Ubuntu;fill:none;stroke:#ff0000;stroke-width:11.811;stroke-linecap:square;stroke-linejoin:bevel;stroke-dasharray:none"
       sodipodi:nodetypes="ccccccc" />
    <path
       id="path1224"
       style="font-style:normal;font-weight:400;font-size:45.8333px;font-family:Ubuntu;fill:none;stroke:#ff0000;stroke-width:11.81104216;stroke-linecap:square;stroke-linejoin:miter;stroke-dasharray:none"
       d="m 2819.0518,1953.0059 v -47.5629 l 41.1907,-23.7815 40.7152,23.7815 40.7148,-23.7815 41.1911,23.7815 v 47.5629 l -40.9555,23.3693 0.2355,47.1507 -41.1911,23.7815 -41.1907,-23.7815 0.2404,-47.1507 z"
       sodipodi:nodetypes="ccccccccccccc" />
    <path
       vector-effect="none"
       fill-rule="nonzero"
       d="m 2330.9827,1764.413 40.7098,-23.7815 41.1911,23.7815 -0.2356,47.1507 40.4747,23.3693 40.4695,-23.3693 v -46.7335 l -40.9504,-23.3643 0.2404,-47.1507 -40.4745,-23.3693 -40.7152,23.7815 -40.7098,-23.7815 -40.4697,23.3693 v 46.7335 z"
       id="path1900"
       style="font-style:normal;font-weight:400;font-size:45.8333px;font-family:Ubuntu;fill:none;stroke:#ff0000;stroke-width:11.811;stroke-linecap:square;stroke-linejoin:bevel;stroke-dasharray:none"
       sodipodi:nodetypes="ccccccccccccccc" />
    <path
       vector-effect="none"
       fill-rule="nonzero"
       d="m 1068.9012,1741.4659 -40.4726,23.3643 v 46.7335 l 40.952,23.3693 -0.2395,47.1457 40.4711,23.3643 40.475,-23.3643 v -46.7335 l -40.9554,-23.3693 0.2404,-47.1457 z"
       id="path2054"
       style="font-style:normal;font-weight:400;font-size:45.8333px;font-family:Ubuntu;fill:none;stroke:#ff0000;stroke-width:11.811;stroke-linecap:square;stroke-linejoin:bevel;stroke-dasharray:none"
       sodipodi:nodetypes="ccccccccccc" />
    <path
       vector-effect="none"
       fill-rule="nonzero"
       d="m 2820.0136,1247.8459 -41.1911,23.7815 -40.7148,-23.7815 -40.4746,23.3693 0.2405,47.1507 -41.1911,23.7815 -40.7098,-23.7815 -40.4747,23.3693 0.2356,47.1507 -41.1911,23.7815 -40.7098,-23.7815 -40.4697,23.3643 0.2406,47.1457 -40.9556,23.3693 0.2356,47.1507 -40.9505,23.3643 v 46.7335 l 40.4746,23.3693 40.7148,-23.7815 41.1911,23.7815 -0.2405,47.1507 40.4746,23.3693 40.7148,-23.7815 41.1911,23.7815 -0.2406,47.1457 40.9506,23.3643 v 47.5629 l -41.1911,23.7815 -40.7148,-23.7815 -40.4746,23.3693 0.2405,47.1507 -41.1911,23.7815 -40.7098,-23.7815 -40.4747,23.3643 0.2356,47.1457 -41.1911,23.7815 -41.1907,-23.7815 0.2404,-47.1457 -40.4695,-23.3643 -40.7102,23.7815 -40.7148,-23.7815 -40.7152,23.7815 -41.1907,-23.7815 0.2404,-47.1507 -40.9504,-23.3693 0.2404,-47.1457 -40.4745,-23.3643 -40.4747,23.3643 0.2406,47.1457 -41.1911,23.7815 -40.7098,-23.7815 -40.4746,23.3693 0.2355,47.1507 -40.9506,23.3643 0.2406,47.1457 -41.1911,23.7815 -40.7098,-23.7815 -40.4746,23.3693 v 46.7335 l 40.9555,23.3643 -0.2405,47.1507 40.4696,23.3693 40.7098,-23.7815 41.1911,23.7815 v 47.5629 l -40.9506,23.3693 v 46.7335 l 40.9506,23.3643 v 47.5629 l -41.1911,23.7815 -40.7098,-23.7815 -40.7102,23.7815 -41.1907,-23.7815 0.2403,-47.1457 -40.9503,-23.3643 0.2354,-47.1507 -40.4745,-23.3693 -40.7102,23.7815 -41.1907,-23.7815 0.2404,-47.1507 -40.9504,-23.3693 0.2404,-47.1457 -40.4745,-23.3643 -40.7152,23.7815 -40.7098,-23.7815 -40.4746,23.3643 v 46.7335 l 40.4746,23.3693 40.7098,-23.7815 41.1911,23.7815 -0.2405,47.1507 40.9505,23.3693 v 47.5629 l -40.9505,23.3643 v 46.7335 l 40.9505,23.3693 v 47.5629 l -41.1911,23.7815 -41.1907,-23.7815 0.2404,-47.1507 -40.9504,-23.3693 v -47.5629 l 40.9504,-23.3643 v -46.7335 l -40.4695,-23.3693 -40.4746,23.3693 0.2355,47.1507 -41.1911,23.7815 -41.1907,-23.7815 0.2404,-47.1507 -40.9504,-23.3693 0.2404,-47.1507 -40.4745,-23.3693 -40.7152,23.7815 -41.1907,-23.7815 0.2404,-47.1457 -40.471,-23.3643 -40.7117,23.7815 -41.19075,-23.7815 0.23886,-47.1507 -40.95186,-23.3693 0.23936,-47.1457 -40.47295,-23.3643 -40.47314,23.3643 0.23955,47.1457 -41.19111,23.7815 -41.19071,-23.7815 0,-47.5629 40.95136,-23.3643 -0.23936,-47.1457 40.95186,-23.3693 -0.23886,-47.1507 41.19071,-23.7815 40.7122,23.7815 40.47295,-23.3643 v -46.7335 l -40.95186,-23.3693 0.23936,-47.1507 -40.47295,-23.3693 -40.7127,23.7815 -41.19071,-23.7815 0,-47.5629 40.95186,-23.3643 -0.23886,-47.1457 40.95136,-23.3693 -0.23936,-47.1507 41.19071,-23.7815 40.7127,23.7815 40.71234,-23.7815 40.7117,23.7815 40.471,-23.3643 0,-46.7335 -40.9504,-23.3693 0.2399,-47.1507 -40.4725,-23.3693 -40.71274,23.7815 -40.7118,-23.7815 -40.7122,23.7815 -41.19071,-23.7815 0.23886,-47.1457 -40.95186,-23.3643 0.23936,-47.1507 -40.47295,-23.3693 -40.7127,23.7815 -40.7118,-23.7815 -40.47315,23.3693 0.23906,47.1507 -41.19111,23.7815 -41.19071,-23.7815 0.23935,-47.1507 -40.47294,-23.3693 -40.7127,23.7815 -41.19071,-23.7815 0.23936,-47.1472 -40.95136,-23.3658 0.23936,-47.14872 -40.95136,-23.36726 0.23886,-47.14874 -40.95186,-23.36726 0.23935,-47.14874 -40.95135,-23.36726 v -47.56296 l 40.95136,-23.36676 -0.23936,-47.14824 41.19071,-23.78148 40.7127,23.78148 40.7123,-23.78148 40.7127,23.78148 40.47295,-23.36726 -0.23936,-47.14874 40.95135,-23.36726 v -46.73452 l -40.47294,-23.36726 -40.7127,23.78148 -41.19071,-23.78148 v -47.56296 l 40.95186,-23.36726 -0.23886,-47.14874 41.19071,-23.78148 40.7122,23.78148 40.47294,-23.36726 v -46.73452 l -40.47294,-23.36726 -40.7122,23.78148 -41.19071,-23.78148 v -47.56296 l 40.95136,-23.36676 -0.23936,-47.14824 40.95135,-23.36736 -0.23935,-47.14884 41.19071,-23.78148 41.19111,23.78148 -0.23906,47.14884 40.47315,23.36736 40.7118,-23.78148 40.7127,23.78148 40.7123,-23.78148 40.7127,23.78148 40.7123,-23.78148 40.7122,23.78148 40.47295,-23.36736 -0.23886,-47.14884 41.19075,-23.78148 40.7117,23.78148 40.7113,-23.78148 40.7152,23.78148 40.7148,-23.78148 41.1911,23.78148 -0.2405,47.14884 40.4696,23.36736 40.4745,-23.36736 -0.2354,-47.14884 41.1907,-23.78148 40.7102,23.78148 40.7098,-23.78148 41.1911,23.78148 v 47.56296 l -41.1911,23.78148 -40.7098,-23.78148 -40.4746,23.36736 v 46.73412 l 40.9555,23.36676 -0.2405,47.14874 40.9505,23.36726 -0.2405,47.14874 40.4746,23.36726 40.4745,-23.36726 -0.2404,-47.14874 40.9504,-23.36726 -0.2404,-47.14874 41.1907,-23.78148 41.1911,23.78148 -0.2405,47.14874 40.4746,23.36726 40.7148,-23.78148 40.7102,23.78148 40.7098,-23.78148 40.7152,23.78148 40.7148,-23.78148 40.7102,23.78148 40.7098,-23.78148 41.1911,23.78148 v 47.56296 l -41.1911,23.78148 -40.7098,-23.78148 -40.4746,23.36726 0.2355,47.14874 -40.9506,23.36726 v 46.73452 l 40.9506,23.36726 v 47.56296 l -40.9506,23.36726 0.2406,47.14874 -40.9505,23.36726 v 46.73402 l 40.9505,23.36676 v 47.56296 l -40.9505,23.36726 0.2405,47.14874 -40.9505,23.36726 0.2405,47.14874 -40.9555,23.36726 v 46.73302 l 40.9555,23.3658 -0.2405,47.1507 40.4696,23.3693 40.4745,-23.3693 -0.2354,-47.1507 40.9504,-23.3658 -0.2404,-47.14724 41.1907,-23.78148 41.1911,23.78148 -0.2405,47.14724 40.9505,23.3658 -0.2406,47.1507 40.4747,23.3693 40.4745,-23.3693 v -46.735 l -40.9504,-23.3658 0.2404,-47.14872 -40.9504,-23.36726 v -47.56296 l 40.9504,-23.36726 v -46.73452 l -40.4745,-23.36726 -40.7152,23.78148 -41.1907,-23.78148 v -47.56296 l 40.9504,-23.36676 -0.2404,-47.14824 41.1907,-23.78148 40.7152,23.78148 40.4745,-23.36726 v -46.73452 l -40.9504,-23.36726 0.2404,-47.14874 -40.9504,-23.36726 v -47.56296 l 41.1907,-23.78148 40.7102,23.78148 40.4695,-23.36726 -0.2404,-47.14874 41.1907,-23.78148 41.1911,23.78148 -0.2405,47.14874 40.9505,23.36726 -0.2356,47.14874 40.9556,23.36726 v 47.56296 l -40.9556,23.36726 0.2356,47.14874 -40.9505,23.36726 v 46.73402 l 40.4746,23.36676 40.7148,-23.78148 40.7102,23.78148 40.4744,-23.36676 -0.2353,-47.14824 40.9503,-23.36726 -0.2403,-47.14874 40.9504,-23.36726 -0.2404,-47.14874 41.1907,-23.78148 41.1911,23.78148 -0.2405,47.14874 40.9505,23.36726 v 47.56296 l -40.9505,23.36726 v 46.73402 l 40.4746,23.36676 40.4745,-23.36676 -0.2404,-47.14824 41.1907,-23.78148 40.7152,23.78148 40.7148,-23.78148 40.7102,23.78148 40.7098,-23.78148 40.7102,23.78148 40.7098,-23.78148 40.7152,23.78148 40.7148,-23.78148 41.1911,23.78148 v 47.56296 l -40.9505,23.36676 0.2405,47.14824 -40.9555,23.36726 0.2355,47.14874 -40.9506,23.36726 0.2406,47.14874 -40.9506,23.36726 0.2406,47.14872 -40.9505,23.3658 v 46.735 l 40.9505,23.3693 v 47.5629 l -40.9505,23.3643 z"
       id="path3504"
       style="font-style:normal;font-weight:400;font-size:45.8333px;font-family:Ubuntu;fill:none;stroke:#ff0000;stroke-width:11.811;stroke-linecap:square;stroke-linejoin:bevel;stroke-dasharray:none"
       sodipodi:nodetypes="ccccccccccccccccccccccccccccccccccccccccccccccccccccccccccccccccccccccccccccccccccccccccccccccccccccccccccccccccccccccccccccccccccccccccccccccccccccccccccccccccccccccccccccccccccccccccccccccccccccccccccccccccccccccccccccccccccccccccccccccccccccccccccccccccccccccccccccccccccccccccccccccccccccccccccccccccccccccccccccccccccccccccccccccccccccccccccccccccccccccccccccccccccccccccc" />
    <path
       vector-effect="none"
       fill-rule="nonzero"
       d="m 1639.1131,471.7617 40.4746,23.36726 40.4744,-23.36726 v -46.73452 l -40.4744,-23.36726 -40.4746,23.36726 z"
       id="path5886"
       style="font-style:normal;font-weight:400;font-size:45.8333px;font-family:Ubuntu;fill:none;stroke:#ff0000;stroke-width:11.811;stroke-linecap:square;stroke-linejoin:bevel;stroke-dasharray:none"
       sodipodi:nodetypes="ccccccc" />
    <path
       id="path1642"
       style="font-style:normal;font-weight:400;font-size:45.8333px;font-family:Ubuntu;fill:none;stroke:#ff0000;stroke-width:11.81104216;stroke-linecap:square;stroke-linejoin:bevel;stroke-dasharray:none"
       d="m 2738.1125,1906.2774 -41.1907,-23.7815 v -47.5629 l 41.1907,-23.7815 41.1911,23.7815 v 47.5629 z"
       sodipodi:nodetypes="ccccccc" />
  </g>
</svg>
